<?xml version="1.0" encoding="UTF-8"?>
<svg width="635px" height="568px" viewBox="0 0 635 568" version="1.1" xmlns="http://www.w3.org/2000/svg" xmlns:xlink="http://www.w3.org/1999/xlink">
    <!-- Generator: Sketch 57.1 (83088) - https://sketch.com -->
    <title>spain</title>
    <desc>Created with Sketch.</desc>
    <g id="Welcome" stroke="none" stroke-width="1" fill="none" fill-rule="evenodd">
        <g id="Artboard" transform="translate(-3463.000000, -534.000000)" fill-rule="nonzero">
            <g id="spain" transform="translate(3463.000000, 534.000000)">
                <path d="M319.356448,0 L56.2416645,0 C25.2304069,0 0,25.1707403 0,56.1086603 L0,143.355611 L4.98994451,149.180039 L4.98994451,418.549896 L0,424.644389 L0,511.89134 C0,542.82926 25.2304069,568 56.2416645,568 L319.356448,568 L330,554.559011 L330,14.595918 L319.356448,0 Z" id="Path" fill="#F40055"></path>
                <path d="M578.645,0 L315,0 L315,568 L578.645,568 C609.71875,568 635,542.829205 635,511.891217 L635,424.644075 L624.1175,414.177505 L624.1175,152.953807 L635,143.355925 L635,56.1087832 C635,25.1707954 609.71875,0 578.645,0 Z" id="Path" fill="#F40055"></path>
                <polygon id="Path" fill="#FFCB24" points="319.610172 144 0 144 0 425 319.610172 425 330 411.310422 330 155.430567"></polygon>
                <polygon id="Path" fill="#FFCB24" points="315 144 635 144 635 425 315 425"></polygon>
            </g>
        </g>
    </g>
</svg>