<?xml version="1.0" encoding="UTF-8"?>
<svg width="832px" height="339px" viewBox="0 0 832 339" version="1.1" xmlns="http://www.w3.org/2000/svg" xmlns:xlink="http://www.w3.org/1999/xlink">
    <!-- Generator: Sketch 57.1 (83088) - https://sketch.com -->
    <title>Design Sprints</title>
    <desc>Created with Sketch.</desc>
    <g id="Welcome" stroke="none" stroke-width="1" fill="none" fill-rule="evenodd">
        <g id="Artboard" transform="translate(-3572.000000, -514.000000)" fill-rule="nonzero">
            <g id="Design-Sprints" transform="translate(3572.000000, 514.000000)">
                <rect id="Rectangle" fill="#3F3D56" x="0" y="0" width="832" height="339"></rect>
                <path d="M119,126 L57.1648127,126 C52.9450624,101.515144 52.9450624,76.4848564 57.1648127,52 L119,52 C112.033783,76.1711722 112.033783,101.828828 119,126 L119,126 Z" id="Path" fill="#FF5A5F"></path>
                <path d="M173,157 L234.835187,157 C239.054938,132.515144 239.054938,107.484856 234.835187,83 L173,83 C179.966217,107.171172 179.966217,132.828828 173,157 Z" id="Path" fill="#FF5A5F"></path>
                <path d="M310.778002,48.3813562 C320.971292,99.7806978 323.873175,152.36146 319.397991,204.57155 C318.2215,218.165612 316.541115,231.702478 314.356835,245.182146 C313.360382,251.310264 312.225598,257.409539 311.05956,263.507116 C310.391426,267.000985 308.989705,271.350883 311.184953,274.639508 C315.460906,281.045154 330.11401,279.373458 336.571072,279.582521 C350.00412,280.01746 363.456597,280.090662 376.894453,280.325364 L417.321635,281.03147 L436.786567,281.371448 C443.418637,281.487235 450.682538,282.516026 457.262287,281.667096 C465.92181,280.549825 463.812285,271.474128 463.681183,264.731362 C463.422013,251.401244 463.066897,238.073457 462.615835,224.748001 C460.829355,171.941485 457.540575,119.214492 452.749494,66.5670201 C452.138113,59.8504636 452.520061,51.8147457 450.711959,45.3204554 C449.980986,42.6949443 449.2538,41.9358017 446.404857,41.4642322 C439.878075,40.3838781 432.100222,41.5214792 425.496762,41.5674633 L403.416227,41.7212346 L313.622046,42.3465754 C312.407621,42.388682 311.444873,43.386108 311.444873,44.6021691 C311.444873,45.8182301 312.407621,46.8156561 313.622046,46.8577628 L387.223837,46.3451866 L419.608617,46.1196273 L437.273051,45.9966072 C440.903544,45.9713295 444.296775,44.8712013 446.57366,48.8687298 C448.01436,51.3981526 447.424045,57.7233335 447.698256,60.6664021 C452.096125,107.866595 455.286189,155.158745 457.268448,202.542854 C457.763727,214.383729 458.183345,226.227445 458.527302,238.074004 C458.670621,243.009934 458.800791,247.946226 458.917814,252.882878 C458.988036,255.844844 459.05352,258.80693 459.114265,261.769136 C459.176924,264.824413 460.440466,270.812006 459.332008,273.618356 C456.968167,279.603017 446.431228,277.028693 441.278534,276.938695 L423.310905,276.624867 L387.375646,275.997225 L351.440372,275.369569 C345.498359,275.265811 339.550531,275.220429 333.612409,274.967065 C331.642597,274.883022 329.670155,274.788513 327.703093,274.648275 C321.845647,274.230885 315.540123,275.616301 314.843695,267.515185 C314.41395,262.515527 317.146019,255.621274 317.999349,250.620097 C318.963021,244.972481 319.838385,239.310771 320.62544,233.634965 C322.097804,223.031038 323.270974,212.391653 324.14495,201.716811 C328.271879,150.035402 325.236404,98.0311103 315.124803,47.182042 C314.562362,44.3366105 310.216598,45.5411126 310.778002,48.381296 L310.778002,48.3813562 Z" id="Path" fill="#F1F1F1"></path>
                <path d="M606.778002,48.3813562 C616.971292,99.7806978 619.873175,152.36146 615.397991,204.57155 C614.2215,218.165612 612.541115,231.702478 610.356835,245.182146 C609.360382,251.310264 608.225598,257.409539 607.05956,263.507116 C606.391426,267.000985 604.989705,271.350883 607.184953,274.639508 C611.460906,281.045154 626.11401,279.373458 632.571072,279.582521 C646.00412,280.01746 659.456597,280.090662 672.894453,280.325364 L713.321635,281.03147 L732.786567,281.371448 C739.418637,281.487235 746.682538,282.516026 753.262287,281.667096 C761.92181,280.549825 759.812285,271.474128 759.681183,264.731362 C759.422013,251.401244 759.066897,238.073457 758.615835,224.748001 C756.829355,171.941485 753.540575,119.214492 748.749494,66.5670201 C748.138113,59.8504636 748.520061,51.8147457 746.711959,45.3204554 C745.980986,42.6949443 745.2538,41.9358017 742.404857,41.4642322 C735.878075,40.3838781 728.100222,41.5214792 721.496762,41.5674633 L699.416227,41.7212346 L609.622046,42.3465754 C608.407621,42.388682 607.444873,43.386108 607.444873,44.6021691 C607.444873,45.8182301 608.407621,46.8156561 609.622046,46.8577628 L683.223837,46.3451866 L715.608617,46.1196273 L733.273051,45.9966072 C736.903544,45.9713295 740.296775,44.8712013 742.57366,48.8687298 C744.01436,51.3981526 743.424045,57.7233335 743.698256,60.6664021 C748.096125,107.866595 751.286189,155.158745 753.268448,202.542854 C753.763717,214.383729 754.183335,226.227445 754.527302,238.074004 C754.670621,243.009934 754.800791,247.946226 754.917814,252.882878 C754.988036,255.844844 755.05352,258.80693 755.114265,261.769136 C755.176924,264.824413 756.440466,270.812006 755.332008,273.618356 C752.968167,279.603017 742.431228,277.028693 737.278534,276.938695 L719.310905,276.624867 L683.375646,275.997225 L647.440372,275.369569 C641.498359,275.265811 635.550531,275.220429 629.612409,274.967065 C627.642597,274.883022 625.670155,274.788513 623.703093,274.648275 C617.845647,274.230885 611.540123,275.616301 610.843695,267.515185 C610.41395,262.515527 613.146019,255.621274 613.999349,250.620097 C614.963021,244.972481 615.838385,239.310771 616.62544,233.634965 C618.097804,223.031038 619.270974,212.391653 620.14495,201.716811 C624.271879,150.035402 621.236404,98.0311103 611.124803,47.182042 C610.562362,44.3366105 606.216598,45.5411126 606.778002,48.381296 L606.778002,48.3813562 Z" id="Path" fill="#F1F1F1"></path>
                <path d="M332.166351,61 L361.833649,61 C363.042037,60.9533309 364,59.8478281 364,58.5 C364,57.1521719 363.042037,56.0466691 361.833649,56 L332.166351,56 C330.957963,56.0466691 330,57.1521719 330,58.5 C330,59.8478281 330.957963,60.9533309 332.166351,61 L332.166351,61 Z" id="Path" fill="#F1F1F1"></path>
                <path d="M332.14385,70.9978743 L359.856162,69.8543636 C362.707585,69.736713 362.721632,64.8838928 359.856162,65.0021257 L332.14385,66.1456364 C329.292411,66.263287 329.278365,71.1161072 332.14385,70.9978743 Z" id="Path" fill="#F1F1F1"></path>
                <path d="M332.203739,79 L359.796261,79 C361.025504,78.9533309 362,77.8478281 362,76.5 C362,75.1521719 361.025504,74.0466691 359.796261,74 L332.203739,74 C330.974496,74.0466691 330,75.1521719 330,76.5 C330,77.8478281 330.974496,78.9533309 332.203739,79 L332.203739,79 Z" id="Path" fill="#F1F1F1"></path>
                <path d="M421.774472,58.9535356 C415.661024,55.8010588 410.111994,60.9850008 409.251035,66.9076534 C408.830059,69.8036802 408.73906,73.7618733 410.605967,76.2219471 C412.512572,78.7342782 416.17989,79.7876905 419.225121,79.9733956 C425.039312,80.3280099 431.225503,77.12289 432.65588,71.2389483 C434.052088,65.8286012 431.087989,60.24996 425.788507,58.3140725 C423.04396,57.3741962 421.864601,61.6725965 424.591116,62.6063004 C427.187554,63.6730098 428.758299,66.3069598 428.444787,69.0684416 C428.077237,72.2452935 425.618525,74.7939769 422.425086,75.308422 C418.707636,76.1534279 414.350833,75.2465648 413.632026,71.1021472 C413.094287,68.0016905 414.798053,60.3718593 419.501122,62.7970651 C422.0681,64.1207706 424.348041,60.2806389 421.774472,58.9535653 L421.774472,58.9535356 Z" id="Path" fill="#F1F1F1"></path>
                <path d="M628.166351,61 L657.833649,61 C659.042037,60.9533309 660,59.8478281 660,58.5 C660,57.1521719 659.042037,56.0466691 657.833649,56 L628.166351,56 C626.957963,56.0466691 626,57.1521719 626,58.5 C626,59.8478281 626.957963,60.9533309 628.166351,61 L628.166351,61 Z" id="Path" fill="#F1F1F1"></path>
                <path d="M628.14385,70.9978743 L655.856162,69.8543636 C658.707585,69.736713 658.721632,64.8838928 655.856162,65.0021257 L628.14385,66.1456364 C625.292411,66.263287 625.278365,71.1161072 628.14385,70.9978743 Z" id="Path" fill="#F1F1F1"></path>
                <path d="M627.203739,79 L654.796261,79 C656.025504,78.9533309 657,77.8478281 657,76.5 C657,75.1521719 656.025504,74.0466691 654.796261,74 L627.203739,74 C625.974496,74.0466691 625,75.1521719 625,76.5 C625,77.8478281 625.974496,78.9533309 627.203739,79 L627.203739,79 Z" id="Path" fill="#F1F1F1"></path>
                <path d="M717.774472,58.9535356 C711.661024,55.8010588 706.111994,60.9850008 705.251035,66.9076534 C704.830059,69.8036802 704.73906,73.7618733 706.605967,76.2219471 C708.512572,78.7342782 712.17989,79.7876905 715.225121,79.9733956 C721.039312,80.3280099 727.225503,77.12289 728.65588,71.2389483 C730.052088,65.8286012 727.087989,60.24996 721.788507,58.3140725 C719.04396,57.3741962 717.864601,61.6725965 720.591116,62.6063004 C723.187554,63.6730098 724.758299,66.3069598 724.444787,69.0684416 C724.077237,72.2452935 721.618525,74.7939769 718.425086,75.308422 C714.707636,76.1534279 710.350833,75.2465648 709.632026,71.1021472 C709.094287,68.0016905 710.798053,60.3718593 715.501122,62.7970651 C718.0681,64.1207706 720.348041,60.2806389 717.774472,58.9535653 L717.774472,58.9535356 Z" id="Path" fill="#F1F1F1"></path>
                <path d="M338.183322,103.540246 C371.070172,103.884852 403.923209,102.873007 436.742434,100.504712 L434.56297,97.6536276 C429.190765,111.218635 429.338717,125.51589 430.050815,139.865833 C430.22922,143.461116 431.361022,148.309412 430.628944,151.870429 C429.70829,156.348699 425.674183,155.278093 421.66218,155.407377 C412.825226,155.692151 403.986204,155.896782 395.145111,156.021271 C386.795627,156.138842 378.445516,156.185165 370.094776,156.160239 C366.165235,156.147967 362.235775,156.120168 358.306395,156.076843 C353.692155,156.025595 348.447184,157.360789 347.255623,152.034669 C346.492369,148.623026 347.260912,144.135672 347.263262,140.627104 L347.271866,127.793592 L347.289059,102.126552 C347.246866,100.91298 346.247404,99.9509089 345.02886,99.9509089 C343.810317,99.9509089 342.810855,100.91298 342.768662,102.126552 L342.747567,133.497367 L342.738014,147.756827 C342.736115,150.589201 342.145601,154.011115 343.206839,156.700062 C345.647974,162.885414 356.196591,160.564813 361.253347,160.611196 C371.568029,160.705793 381.882946,160.690192 392.198099,160.564392 C402.512509,160.439944 412.824784,160.206648 423.134925,159.864505 C427.576426,159.717262 433.722673,160.723992 435.069917,155.26518 C436.014454,151.438043 434.91321,146.448075 434.711706,142.542722 C434.481723,138.08597 434.234669,133.628212 434.174653,129.165093 C434.03452,118.743086 435.059294,108.604091 438.921823,98.8510842 C439.104984,98.1735437 438.962323,97.449662 438.535627,96.8914755 C438.10893,96.3332889 437.446495,96.0039769 436.742359,96 C403.939628,98.3677951 371.086591,99.37964 338.183247,99.0355346 C336.965434,99.0775803 336,100.073561 336,101.28786 C336,102.50216 336.965434,103.498141 338.183247,103.540186 L338.183322,103.540246 Z" id="Path" fill="#F1F1F1"></path>
                <path d="M347.532791,106.491767 C361.495404,111.463859 375.108387,117.379039 388.278829,124.196937 C400.095187,130.341583 415.564515,137.053761 423.696562,148.035941 C425.400876,150.337597 429.294677,148.090725 427.568034,145.758903 C419.263906,134.544305 404.967852,127.945622 392.959371,121.571551 C378.695143,114.038983 363.912328,107.54562 348.724717,102.141444 C346.001426,101.165729 344.829362,105.52318 347.532791,106.491767 L347.532791,106.491767 Z" id="Path" fill="#F1F1F1"></path>
                <path d="M435.538671,98.2049599 C420.626964,104.615529 407.993693,116.966666 394.667742,126.118422 C380.243517,136.024548 365.390031,145.243537 350.107284,153.775387 C347.571487,155.19896 349.844207,159.118852 352.384817,157.692572 C367.635074,149.131254 382.48856,139.912266 396.945275,130.035607 C410.268533,120.885589 422.908212,108.531066 437.816204,102.122069 C440.478245,100.977661 438.18197,97.068521 435.538686,98.2048843 L435.538671,98.2049599 Z" id="Path" fill="#F1F1F1"></path>
                <path d="M633.183322,103.540246 C666.070172,103.884852 698.923209,102.873007 731.742434,100.504712 L729.56297,97.6536276 C724.190765,111.218635 724.338717,125.51589 725.050815,139.865833 C725.22922,143.461116 726.361022,148.309412 725.628944,151.870429 C724.70829,156.348699 720.674183,155.278093 716.66218,155.407377 C707.825226,155.692151 698.986204,155.896782 690.145111,156.021271 C681.795627,156.138842 673.445516,156.185165 665.094776,156.160239 C661.165235,156.147967 657.235775,156.120168 653.306395,156.076843 C648.692155,156.025595 643.447184,157.360789 642.255623,152.034669 C641.492369,148.623026 642.260912,144.135672 642.263262,140.627104 L642.271866,127.793592 L642.289059,102.126552 C642.246866,100.91298 641.247404,99.9509089 640.02886,99.9509089 C638.810317,99.9509089 637.810855,100.91298 637.768662,102.126552 L637.747567,133.497367 L637.738014,147.756827 C637.736115,150.589201 637.145601,154.011115 638.206839,156.700062 C640.647974,162.885414 651.196591,160.564813 656.253347,160.611196 C666.568029,160.705793 676.882946,160.690192 687.198099,160.564392 C697.512509,160.439944 707.824784,160.206648 718.134925,159.864505 C722.576426,159.717262 728.722673,160.723992 730.069917,155.26518 C731.014454,151.438043 729.91321,146.448075 729.711706,142.542722 C729.481723,138.08597 729.234669,133.628212 729.174653,129.165093 C729.03452,118.743086 730.059294,108.604091 733.921823,98.8510842 C734.104984,98.1735437 733.962323,97.449662 733.535627,96.8914755 C733.10893,96.3332889 732.446495,96.0039769 731.742359,96 C698.939628,98.3677951 666.086591,99.37964 633.183247,99.0355346 C631.965434,99.0775803 631,100.073561 631,101.28786 C631,102.50216 631.965434,103.498141 633.183247,103.540186 L633.183322,103.540246 Z" id="Path" fill="#F1F1F1"></path>
                <path d="M643.532791,106.491767 C657.495404,111.463859 671.108387,117.379039 684.278829,124.196937 C696.095187,130.341583 711.564515,137.053761 719.696562,148.035941 C721.400876,150.337597 725.294677,148.090725 723.568034,145.758903 C715.263906,134.544305 700.967852,127.945622 688.959371,121.571551 C674.695143,114.038983 659.912328,107.54562 644.724717,102.141444 C642.001426,101.165729 640.829362,105.52318 643.532791,106.491767 L643.532791,106.491767 Z" id="Path" fill="#F1F1F1"></path>
                <path d="M731.538671,98.2049599 C716.626964,104.615529 703.993693,116.966666 690.667742,126.118422 C676.243517,136.024548 661.390031,145.243537 646.107284,153.775387 C643.571487,155.19896 645.844207,159.118852 648.384817,157.692572 C663.635074,149.131254 678.48856,139.912266 692.945275,130.035607 C706.268533,120.885589 718.908212,108.531066 733.816204,102.122069 C736.478245,100.977661 734.18197,97.068521 731.538686,98.2048843 L731.538671,98.2049599 Z" id="Path" fill="#F1F1F1"></path>
                <path d="M633.183322,194.54018 C666.070172,194.884786 698.923209,193.87294 731.742434,191.504642 L729.56297,188.653554 C724.190765,202.218578 724.338717,216.515849 725.050815,230.865809 C725.22922,234.461095 726.361022,239.309398 725.628944,242.870419 C724.70829,247.348694 720.674183,246.278087 716.66218,246.40737 C707.825226,246.692145 698.986204,246.896776 690.145111,247.021265 C681.795627,247.138837 673.445516,247.185159 665.094776,247.160234 C661.165235,247.147971 657.235775,247.120172 653.306395,247.076838 C648.692155,247.02559 643.447184,248.360785 642.255623,243.034659 C641.492369,239.623012 642.260912,235.135653 642.263262,231.627081 L642.271866,218.793553 L642.289059,193.126484 C642.246866,191.912911 641.247404,190.950838 640.02886,190.950838 C638.810317,190.950838 637.810855,191.912911 637.768662,193.126484 L637.747567,224.497335 L637.738014,238.756811 C637.736115,241.589189 637.145601,245.011107 638.206839,247.700057 C640.647974,253.885416 651.196591,251.564812 656.253347,251.611195 C666.568029,251.705793 676.882946,251.690192 687.198099,251.564392 C697.512509,251.439943 707.824784,251.206647 718.134925,250.864503 C722.576426,250.717261 728.722673,251.723992 730.069917,246.265248 C731.014454,242.438107 729.91321,237.448133 729.711706,233.542776 C729.481723,229.086019 729.234669,224.628255 729.174653,220.165131 C729.03452,209.743112 730.059294,199.604105 733.921823,189.851087 C734.104984,189.173546 733.962323,188.449664 733.535627,187.891477 C733.10893,187.333289 732.446495,187.003977 731.742359,187 C698.939628,189.367798 666.086591,190.379644 633.183247,190.035538 C631.965434,190.077584 631,191.073566 631,192.287867 C631,193.502167 631.965434,194.498149 633.183247,194.540195 L633.183322,194.54018 Z" id="Path" fill="#F1F1F1"></path>
                <path d="M643.532791,196.491767 C657.495404,201.463859 671.108387,207.379039 684.278829,214.196937 C696.095187,220.341583 711.564515,227.053761 719.696562,238.035941 C721.400876,240.337597 725.294677,238.090725 723.568034,235.758903 C715.263906,224.544305 700.967852,217.945622 688.959371,211.571551 C674.695143,204.038983 659.912328,197.54562 644.724717,192.141444 C642.001426,191.165729 640.829362,195.52318 643.532791,196.491767 Z" id="Path" fill="#F1F1F1"></path>
                <path d="M731.538671,188.204885 C716.626964,194.615462 703.993693,206.966614 690.667742,216.118382 C676.243517,226.024521 661.390031,235.243521 646.107284,243.775382 C643.571487,245.198957 645.844207,249.118853 648.384817,247.692572 C663.635074,239.131233 678.48856,229.912233 692.945275,220.035572 C706.268533,210.885543 718.908212,198.531003 733.816204,192.122074 C736.478245,190.977665 734.18197,187.06852 731.538686,188.204885 L731.538671,188.204885 Z" id="Path" fill="#F1F1F1"></path>
                <path d="M346.165536,190.733122 C376.389971,191.182222 406.613316,191.064516 436.835569,190.380006 C439.716199,190.314769 439.72675,185.935242 436.835569,186.000727 C406.615747,186.685228 376.392403,186.802933 346.165536,186.353843 C344.957602,186.394718 344,187.362979 344,188.543482 C344,189.723985 344.957602,190.692246 346.165536,190.733122 Z" id="Path" fill="#F1F1F1"></path>
                <path d="M349.175234,210.717098 C380.393053,211.19583 411.609811,211.066973 442.825507,210.330526 C445.719363,210.262246 445.730294,205.932266 442.825507,206.000805 C411.613134,206.737252 380.396377,206.866109 349.175234,206.387377 C346.275327,206.342896 346.274516,210.672617 349.175234,210.717098 Z" id="Path" fill="#F1F1F1"></path>
                <path d="M345.173805,232.996905 L433.826195,228.705159 C436.716394,228.565257 436.732797,223.862393 433.826195,224.003095 L345.173805,228.294841 C342.283606,228.434759 342.267203,233.137607 345.173805,232.996905 Z" id="Path" fill="#F1F1F1"></path>
                <path d="M483.184792,170 L567.815208,170 C569.033883,169.953331 570,168.847828 570,167.5 C570,166.152172 569.033883,165.046669 567.815208,165 L483.184792,165 C481.966117,165.046669 481,166.152172 481,167.5 C481,168.847828 481.966117,169.953331 483.184792,170 L483.184792,170 Z" id="Path" fill="#F1F1F1"></path>
                <path d="M564.536912,143.837856 L577.566877,155.988849 C579.057009,157.378478 583.155913,160.247439 584.081829,162.064308 C585.996234,165.820891 583.9393,164.96389 580.658911,166.26562 C572.598321,169.54269 565.170712,174.254793 558.721364,180.182883 C556.564756,182.124434 559.72749,185.335242 561.873459,183.403271 C567.75542,178.00216 574.513242,173.689032 581.843956,170.657256 C584.472535,169.594886 589.459553,168.972751 590.708463,165.773814 C592.237006,161.85862 587.368771,158.969665 585.062278,156.818752 L567.688993,140.617423 C565.573767,138.644857 562.412519,141.856729 564.536898,143.837811 L564.536912,143.837856 Z" id="Path" fill="#F1F1F1"></path>
                <path d="M360,320 L421.835187,320 C426.054938,295.515144 426.054938,270.484856 421.835187,246 L360,246 C366.966217,270.171172 366.966217,295.828828 360,320 L360,320 Z" id="Path" fill="#FF5A5F"></path>
                <path d="M101,264 L162.835187,264 C167.054938,239.515144 167.054938,214.484856 162.835187,190 L101,190 C107.966217,214.171172 107.966217,239.828828 101,264 Z" id="Path" fill="#FF5A5F"></path>
                <path d="M493,102 L554.835187,102 C559.054938,77.5151436 559.054938,52.4848564 554.835187,28 L493,28 C499.966217,52.171172 499.966217,77.828828 493,102 L493,102 Z" id="Path" fill="#FF5A5F"></path>
            </g>
        </g>
    </g>
</svg>