<?xml version="1.0" encoding="UTF-8"?>
<svg width="972px" height="662px" viewBox="0 0 972 662" version="1.1" xmlns="http://www.w3.org/2000/svg" xmlns:xlink="http://www.w3.org/1999/xlink">
    <!-- Generator: Sketch 57.1 (83088) - https://sketch.com -->
    <title>User Interface Design</title>
    <desc>Created with Sketch.</desc>
    <defs>
        <linearGradient x1="50.0199541%" y1="99.9999129%" x2="50.0199541%" y2="0%" id="linearGradient-1">
            <stop stop-color="#808080" stop-opacity="0.25" offset="0%"></stop>
            <stop stop-color="#808080" stop-opacity="0.12" offset="53.514%"></stop>
            <stop stop-color="#808080" stop-opacity="0.1" offset="100%"></stop>
        </linearGradient>
        <linearGradient x1="49.9999915%" y1="99.9999925%" x2="49.9999915%" y2="-7.53146442e-06%" id="linearGradient-2">
            <stop stop-color="#808080" stop-opacity="0.25" offset="0%"></stop>
            <stop stop-color="#808080" stop-opacity="0.12" offset="53.514%"></stop>
            <stop stop-color="#808080" stop-opacity="0.1" offset="100%"></stop>
        </linearGradient>
        <linearGradient x1="49.9999976%" y1="100%" x2="49.9999976%" y2="0%" id="linearGradient-3">
            <stop stop-color="#808080" stop-opacity="0.25" offset="0%"></stop>
            <stop stop-color="#808080" stop-opacity="0.12" offset="53.514%"></stop>
            <stop stop-color="#808080" stop-opacity="0.1" offset="100%"></stop>
        </linearGradient>
    </defs>
    <g id="Welcome" stroke="none" stroke-width="1" fill="none" fill-rule="evenodd">
        <g id="Artboard" transform="translate(-2290.000000, -346.000000)" fill-rule="nonzero">
            <g id="User-Interface-Design" transform="translate(2290.000000, 346.000000)">
                <g id="Group" opacity="0.7" transform="translate(813.000000, 527.000000)" fill="url(#linearGradient-1)">
                    <path d="M82.49428,17.17837 L82.49428,0.78456 L0.5252,0.78456 L0.5252,76.606 C0.5252,80.8452204 2.20922374,84.9108133 5.20680521,87.9083948 C8.20438668,90.9059763 12.2699796,92.59 16.5092,92.59 L66.51033,92.59 C75.3380494,92.59 82.49433,85.4337194 82.49433,76.606 L82.49433,59.80229 C94.2484786,59.7795168 103.765039,50.2445006 103.765039,38.49033 C103.765039,26.7361594 94.2484786,17.2011432 82.49433,17.17837 L82.49428,17.17837 Z M82.49428,51.60537 L82.49428,25.37527 C89.7375221,25.37527 95.60933,31.2470779 95.60933,38.49032 C95.60933,45.7335621 89.7375221,51.60537 82.49428,51.60537 L82.49428,51.60537 Z" id="Shape"></path>
                </g>
                <path d="M892.85701,546.74436 C884.986679,546.74436 877.891312,551.485333 874.879468,558.756571 C871.867624,566.027809 873.532434,574.397365 879.097599,579.962528 C884.662765,585.52769 893.032322,587.192496 900.303558,584.180648 C907.574794,581.1688 912.31576,574.073431 912.31576,566.2031 C912.31576,555.456338 903.603772,546.74436 892.85701,546.74436 L892.85701,546.74436 Z M892.85701,578.17772 C888.013727,578.17772 883.647343,575.260204 881.793897,570.785596 C879.94045,566.310987 880.964945,561.160488 884.389661,557.735769 C887.814378,554.311049 892.964876,553.28655 897.439486,555.139993 C901.914096,556.993436 904.83162,561.359817 904.83162,566.2031 C904.83162,572.816496 899.470406,578.17772 892.85701,578.17772 Z" id="Shape" fill="#FF5A5F"></path>
                <path d="M874.879468,558.756571 C871.867624,566.027809 873.532434,574.397365 879.097599,579.962528 C884.662765,585.52769 893.032322,587.192496 900.303558,584.180648 C907.574794,581.1688 912.31576,574.073431 912.31576,566.2031 C912.31576,555.456338 903.603772,546.74436 892.85701,546.74436 C884.986679,546.74436 877.891312,551.485333 874.879468,558.756571 Z M892.85701,578.17772 C888.013727,578.17772 883.647343,575.260204 881.793897,570.785596 C879.94045,566.310987 880.964945,561.160488 884.389661,557.735769 C887.814378,554.311049 892.964876,553.28655 897.439486,555.139993 C901.914096,556.993436 904.83162,561.359817 904.83162,566.2031 C904.83162,572.816496 899.470406,578.17772 892.85701,578.17772 Z" id="Shape" fill="#000000" opacity="0.1"></path>
                <path d="M818.01569,531.77609 L892.857,531.77609 L892.857,605.84837 C892.857,611.233146 888.491776,615.59837 883.107,615.59837 L827.76569,615.59837 C822.380914,615.59837 818.01569,611.233146 818.01569,605.84837 L818.01569,531.77609 L818.01569,531.77609 Z" id="Path" fill="#FF5A5F"></path>
                <rect id="Rectangle" fill="#E0E0E0" x="0" y="615.59838" width="971.44041" height="32.93018"></rect>
                <g id="Group" opacity="0.7" transform="translate(310.000000, 0.000000)" fill="url(#linearGradient-2)">
                    <path d="M328.96946,395.26464 C318.55781,357.47285 259.53161,329.87602 215.11876,323.75691 C215.12476,323.47809 215.13988,323.20155 215.13988,322.92122 L215.13988,290.571 C215.18714,290.55367 215.23572,290.53918 215.28288,290.52175 L215.28288,289.2956 C247.219967,277.41821 271.927362,251.52315 282.29334,219.064 C285.038283,214.101058 287.42758,208.949584 289.44323,203.64839 C294.18438,201.9221 297.76523,194.10377 297.76523,184.70955 C297.7829,181.496225 297.332129,178.297481 296.42713,175.21418 C297.0091,170.429686 297.305928,165.614808 297.31604,160.79506 C297.353451,126.720639 282.924561,94.2320355 257.61944,71.41278 C257.99101,69.4772572 258.117078,67.5026105 257.99466,65.53555 C256.98993,50.00847 240.40537,39.45969 224.86182,38.75413 C233.242366,29.2468231 235.395872,15.7621457 230.39329,4.11755 C220.48216,18.55684 200.13476,20.09173 182.62161,20.20529 C190.17836,17.27879 193.57895,6.80814 189.18386,3.99999999e-05 C170.88011,24.5339 135.19886,29.07693 113.4281,50.59375 C108.68521,55.3000858 104.71027,60.7215735 101.64834,66.66036 C72.986805,89.4934582 56.301857,124.150371 56.32888,160.79506 C56.3386849,165.571121 56.6299666,170.342454 57.20121,175.08424 C56.2678757,178.20681 55.8027701,181.450529 55.82107,184.70955 C55.82107,194.14696 59.4356,201.98943 64.20914,203.66733 C66.2331795,208.986844 68.6334705,214.155467 71.3918,219.13398 C81.7198995,251.400461 106.228357,277.177367 137.93308,289.11914 L137.93308,322.92126 C137.93308,323.18151 137.94757,323.43817 137.95268,323.69719 C93.37145,329.71127 33.87368,357.52536 23.55459,395.62106 C14.64327,428.5196 5.13094,464.6493 0.39794,485.86184 C40.96621,514.36737 126.09109,531.10525 179.43913,531.10525 C230.12603,531.10525 312.97191,515.9981 352.34576,490.04186 C348.08085,466.734 338.26841,429.0178 328.96946,395.26464 Z" id="Path"></path>
                </g>
                <path d="M489.33068,521.72159 C538.22649,521.72159 618.14498,507.14824 656.12744,482.10926 C652.01333,459.62502 642.54759,423.24157 633.5772,390.6811 C622.15289,349.21344 550.04953,320.4651 507.03695,320.4651 L465.58835,320.4651 C422.44245,320.4651 350.23507,349.37979 338.95455,391.02495 C330.35815,422.76095 321.18189,457.61395 316.61618,478.07689 C355.75088,505.57518 437.86777,521.72159 489.33068,521.72159 Z" id="Path" fill="#FF5A5F"></path>
                <circle id="Oval" fill="#72351C" cx="486.8065" cy="164.49683" r="116.23581"></circle>
                <path d="M449.29134,261.31116 L523.77,261.31116 L523.77,320.8941 C523.77,341.460781 507.097411,358.13337 486.53073,358.13337 L486.53066,358.13337 C465.963979,358.13337 449.29134,341.460781 449.29134,320.8941 L449.29134,261.31116 L449.29134,261.31116 Z" id="Path" fill="#000000" opacity="0.1"></path>
                <path d="M459.97433,258.55269 L513.087,258.55269 C518.987058,258.55269 523.77,263.335632 523.77,269.23569 L523.77,318.13563 C523.77,338.702311 507.097411,355.3749 486.53073,355.3749 L486.53066,355.3749 C465.963979,355.3749 449.29139,338.702311 449.29139,318.13563 L449.29139,269.23568 C449.29139,263.335649 454.074299,258.55269 459.97433,258.55269 L459.97433,258.55269 Z" id="Path" fill="#FDA57D"></path>
                <path d="M449.42926,289.43366 C473.432821,298.402271 499.855105,298.475307 523.90788,289.63953 L523.90788,280.49039 L449.42926,280.49039 L449.42926,289.43366 Z" id="Path" fill="#000000" opacity="0.1"></path>
                <circle id="Oval" fill="#FDA57D" cx="486.8065" cy="187.66796" r="106.75269"></circle>
                <path d="M410.76633,90.56488 C410.76633,90.56488 455.7562,181.88751 582.66775,128.8398 L553.1222,82.507 L500.74599,63.70528 L410.76633,90.56488 Z" id="Path" fill="#000000" opacity="0.1"></path>
                <path d="M410.76633,89.2219 C410.76633,89.2219 455.75615,180.54453 582.66775,127.49682 L553.1222,81.164 L500.74598,62.3623 L410.76633,89.2219 Z" id="Path" fill="#72351C"></path>
                <path d="M410.36683,83.0522 C413.399268,73.6610162 418.641196,65.1347223 425.65226,58.18958 C446.65372,37.43306 481.07412,33.05063 498.73107,9.38364 C502.97091,15.95122 499.69046,26.05186 492.40075,28.87492 C509.29506,28.76535 528.92348,27.28476 538.48433,13.35567 C543.31015,24.5888022 541.232744,37.5969992 533.14833,46.76837 C548.14259,47.44896 564.14116,57.62498 565.11033,72.60337 C565.75598,82.58208 559.49913,92.02988 551.29902,97.75261 C543.09891,103.47534 533.1779,106.10246 523.41285,108.25545 C494.90778,114.54021 391.76636,140.8821 410.36683,83.0522 Z" id="Path" fill="#72351C"></path>
                <ellipse id="Oval" fill="#FDA57D" cx="380.01131" cy="187.56625" rx="9.93048" ry="18.61966"></ellipse>
                <ellipse id="Oval" fill="#FDA57D" cx="593.54511" cy="187.56625" rx="9.93048" ry="18.61966"></ellipse>
                <g id="Group" opacity="0.7" transform="translate(279.000000, 377.000000)" fill="url(#linearGradient-3)">
                    <rect id="Rectangle" x="0.15815" y="0.70425" width="413.12412" height="237.89413" rx="14.5"></rect>
                </g>
                <rect id="Rectangle" fill="#535461" x="286.64228" y="382.09344" width="398.15585" height="233.50494" rx="26.83505"></rect>
                <circle id="Oval" fill="#FFFFFF" cx="485.7202" cy="498.84591" r="13.47144"></circle>
                <rect id="Rectangle" fill="#E0E0E0" x="41.16273" y="648.52856" width="889.11495" height="13.47144"></rect>
                <rect id="Rectangle" fill="#000000" opacity="0.1" x="41.16273" y="648.52856" width="889.11495" height="4.49048"></rect>
                <path d="M879.38557,531.77609 L879.38557,601.00432 C879.385564,609.064391 872.851591,615.59838 864.79152,615.59838 L872.27565,615.59838 C880.335722,615.59838 886.86971,609.064392 886.86971,601.00432 L886.86971,531.77609 L879.38557,531.77609 Z" id="Path" fill="#000000" opacity="0.1"></path>
                <path d="M832.78463,475.97939 C831.52229,476.19539 830.09814,476.53607 829.47956,477.65745 C828.49784,479.43714 830.27683,481.44375 831.90027,482.66665 C834.89949,484.9259 838.06066,487.1451 840.09934,490.2984 C842.13802,493.4517 842.77846,497.8523 840.5499,500.8744 C837.64,504.82045 830.69761,505.66929 830.02574,510.52598 C829.59441,513.64393 832.28992,516.30445 835.0212,517.86898 C841.76262,521.73063 850.4532,522.76085 855.3363,528.80359 C857.3563,524.64981 861.87453,522.24871 866.37819,521.22335 C870.88185,520.19799 875.56119,520.27453 880.12739,519.57895 C881.60144,519.35441 883.26197,518.90421 883.92101,517.56671 C885.19745,514.97623 881.55949,511.86934 882.81511,509.26871 C883.77076,507.28935 886.57811,507.44306 888.62818,506.65039 C891.96625,505.3597 893.34277,501.06364 892.39535,497.61239 C891.44793,494.16114 888.77176,491.464 885.95765,489.25269 C878.37354,483.29317 869.25412,479.78843 860.03039,477.26753 C855.74049,476.09508 850.70465,474.25645 846.24897,474.07871 C841.9476,473.90716 837.04194,475.25107 832.78463,475.97939 Z" id="Path" fill="#EEEEEE"></path>
            </g>
        </g>
    </g>
</svg>