<?xml version="1.0" encoding="UTF-8"?>
<svg width="515px" height="619px" viewBox="0 0 515 619" version="1.1" xmlns="http://www.w3.org/2000/svg" xmlns:xlink="http://www.w3.org/1999/xlink">
    <!-- Generator: Sketch 57.1 (83088) - https://sketch.com -->
    <title>UX Design</title>
    <desc>Created with Sketch.</desc>
    <g id="Welcome" stroke="none" stroke-width="1" fill="none" fill-rule="evenodd">
        <g id="Artboard" transform="translate(-4707.000000, -374.000000)" fill-rule="nonzero">
            <g id="UX-Design" transform="translate(4707.000000, 374.000000)">
                <rect id="Rectangle" fill="#464353" x="0.46" y="0.01" width="514" height="618.97" rx="19.8"></rect>
                <rect id="Rectangle" fill="#E5E1F4" opacity="0.1" x="44.8" y="62.45" width="425.32" height="494.09"></rect>
                <circle id="Oval" fill="#555362" cx="257.46" cy="589.12" r="18.1"></circle>
                <path d="M257.46,44.76 C252.737965,44.76 248.91,40.9320346 248.91,36.21 C248.91,31.4879654 252.737965,27.66 257.46,27.66 C262.182035,27.66 266.01,31.4879654 266.01,36.21 C265.999004,40.9274722 262.177472,44.7490035 257.46,44.76 Z" id="Path" fill="#FFFFFF"></path>
                <path d="M257.46,28.16 C261.905892,28.16 265.51,31.7641078 265.51,36.21 C265.51,40.6558922 261.905892,44.26 257.46,44.26 C253.014108,44.26 249.41,40.6558922 249.41,36.21 C249.41551,31.766392 253.016392,28.1655097 257.46,28.16 L257.46,28.16 Z M257.46,27.1598609 C253.795135,27.1397518 250.479862,29.3318293 249.063326,32.7119291 C247.64679,36.092029 248.408679,39.9927677 250.992982,42.5914271 C253.577284,45.1900865 257.473742,45.9735746 260.861637,44.5757867 C264.249533,43.1779989 266.459944,39.8749213 266.460139,36.21 C266.473309,33.8144002 265.530976,31.5123489 263.841704,29.813692 C262.152432,28.1150351 259.855637,27.1598609 257.46,27.1598609 L257.46,27.1598609 Z" id="Shape" fill="#FFFFFF"></path>
                <rect id="Rectangle" stroke="#FFFFFF" fill="#FFFFFF" x="64.56" y="215.51" width="88.21" height="119.92" rx="4.3"></rect>
                <rect id="Rectangle" fill="#FF6363" opacity="0.5" x="72.83" y="245.73" width="71.67" height="38.05" rx="7.14"></rect>
                <rect id="Rectangle" fill="#FF5A5F" x="87.79" y="299.3" width="41.75" height="5.91" rx="1.69"></rect>
                <rect id="Rectangle" stroke="#FFFFFF" fill="#FFFFFF" x="213.69" y="215.51" width="88.21" height="119.92" rx="4.3"></rect>
                <rect id="Rectangle" fill="#FF6363" opacity="0.5" x="236.89" y="234.24" width="42.27" height="22.44" rx="1.46"></rect>
                <rect id="Rectangle" fill="#FF5A5F" x="230.71" y="277.71" width="53.96" height="5.91" rx="1.69"></rect>
                <rect id="Rectangle" fill="#FF5A5F" x="230.71" y="288.73" width="53.96" height="5.91" rx="1.69"></rect>
                <rect id="Rectangle" stroke="#FFFFFF" fill="#FFFFFF" x="362.15" y="130.32" width="88.21" height="119.92" rx="4.3"></rect>
                <rect id="Rectangle" fill="#FF6363" opacity="0.5" x="377.54" y="148.93" width="57.43" height="26.8" rx="1.46"></rect>
                <rect id="Rectangle" fill="#FF6363" opacity="0.5" x="377.54" y="187.88" width="57.43" height="26.8" rx="1.46"></rect>
                <rect id="Rectangle" fill="#FF5A5F" x="372.95" y="236.28" width="18.84" height="8.27" rx="3.83"></rect>
                <rect id="Rectangle" fill="#FF5A5F" x="396.84" y="236.28" width="18.84" height="8.27" rx="3.83"></rect>
                <rect id="Rectangle" fill="#FF5A5F" x="420.73" y="236.28" width="18.84" height="8.27" rx="3.83"></rect>
                <rect id="Rectangle" stroke="#FFFFFF" fill="#FFFFFF" x="361.94" y="300.7" width="88.21" height="119.92" rx="4.3"></rect>
                <rect id="Rectangle" fill="#FF6363" opacity="0.5" x="368.75" y="314.72" width="26.36" height="26.8" rx="1.46"></rect>
                <rect id="Rectangle" fill="#FF5A5F" x="379.07" y="357.84" width="53.96" height="5.91" rx="1.69"></rect>
                <rect id="Rectangle" fill="#FF5A5F" x="379.07" y="369.79" width="53.96" height="5.91" rx="1.69"></rect>
                <rect id="Rectangle" fill="#FF5A5F" x="379.07" y="381.74" width="53.96" height="5.91" rx="1.69"></rect>
                <path d="M203.52,272.61 L202.17,273.26 L191.23,278.52 L190.23,278.99 C190.095272,279.052811 189.94061,279.057306 189.802461,279.002425 C189.664313,278.947544 189.554897,278.838142 189.5,278.7 C189.488618,278.633819 189.488618,278.566181 189.5,278.5 L189.5,275.39 C189.5,275.097289 189.262711,274.86 188.97,274.86 L162.38,274.86 C162.085628,274.86005 161.845451,274.624321 161.84,274.33 L161.84,269.94 C161.845451,269.645679 162.085628,269.40995 162.38,269.41 L189,269.41 C189.294321,269.404549 189.53005,269.164372 189.53,268.87 L189.53,265.69 C189.519682,265.623733 189.519682,265.556267 189.53,265.49 C189.586854,265.353646 189.69709,265.246539 189.835024,265.193633 C189.972957,265.140727 190.126544,265.146642 190.26,265.21 L191.26,265.68 L202.17,270.99 L203.52,271.65 C203.706278,271.73721 203.825278,271.924319 203.825278,272.13 C203.825278,272.335681 203.706278,272.52279 203.52,272.61 Z" id="Path" stroke="#FFFFFF" fill="#FFFFFF"></path>
                <path d="M351.55,245.64 L350.67,246.85 L343.51,256.61 L342.88,257.48 C342.789335,257.596575 342.655599,257.671791 342.508891,257.688719 C342.362183,257.705647 342.214831,257.662864 342.1,257.57 C342.049209,257.525684 342.008322,257.471167 341.98,257.41 L340.52,254.67 C340.378661,254.408831 340.055523,254.30702 339.79,254.44 L316.29,266.95 C316.165474,267.01695 316.019361,267.031371 315.884149,266.990056 C315.748938,266.948742 315.635839,266.855117 315.57,266.73 L313.51,262.84 C313.44305,262.715474 313.428629,262.569361 313.469944,262.434149 C313.511258,262.298938 313.604883,262.185839 313.73,262.12 L337.23,249.63 C337.355117,249.564161 337.448742,249.451062 337.490056,249.315851 C337.531371,249.180639 337.51695,249.034526 337.45,248.91 L335.96,246.1 C335.922014,246.043817 335.90117,245.977809 335.9,245.91 C335.879907,245.762153 335.924291,245.612797 336.021865,245.499917 C336.119439,245.387038 336.260801,245.32151 336.41,245.32 L337.48,245.32 L349.6,244.88 L351.1,244.83 C351.292479,244.83 351.469827,244.934353 351.563303,245.102609 C351.656779,245.270866 351.651687,245.476575 351.55,245.64 Z" id="Path" stroke="#FFFFFF" fill="#FFFFFF"></path>
                <path d="M351.47,296.9 L349.98,296.9 L337.87,296.9 L336.8,296.9 C336.652222,296.900477 336.510979,296.839126 336.41035,296.730902 C336.309722,296.622679 336.258846,296.477357 336.27,296.33 C336.272469,296.263757 336.289542,296.198878 336.32,296.14 L337.66,293.33 C337.721624,293.202791 337.729881,293.056236 337.682935,292.92291 C337.635989,292.789584 337.537731,292.680535 337.41,292.62 L313.41,281.1 C313.142617,280.969791 313.030847,280.647895 313.16,280.38 L315.06,276.43 C315.118377,276.300316 315.227323,276.200201 315.361467,276.152967 C315.495612,276.105733 315.643249,276.115502 315.77,276.18 L339.77,287.71 C340.038199,287.833417 340.355997,287.72307 340.49,287.46 L341.87,284.59 C341.945252,284.422109 342.10362,284.306481 342.286454,284.285937 C342.469287,284.265394 342.649367,284.342995 342.76,284.49 L343.43,285.32 L350.96,294.84 L351.89,296.02 C352.030443,296.179318 352.062217,296.40709 351.970738,296.598761 C351.879258,296.790433 351.682193,296.908985 351.47,296.9 Z" id="Path" stroke="#FFFFFF" fill="#FFFFFF"></path>
            </g>
        </g>
    </g>
</svg>