<?xml version="1.0" encoding="UTF-8"?>
<svg width="624px" height="589px" viewBox="0 0 624 589" version="1.1" xmlns="http://www.w3.org/2000/svg" xmlns:xlink="http://www.w3.org/1999/xlink">
    <!-- Generator: Sketch 57.1 (83088) - https://sketch.com -->
    <title>Wireframing</title>
    <desc>Created with Sketch.</desc>
    <g id="Welcome" stroke="none" stroke-width="1" fill="none" fill-rule="evenodd">
        <g id="Artboard" transform="translate(-178.000000, -361.000000)" fill-rule="nonzero">
            <g id="Wireframing" transform="translate(178.000000, 361.000000)">
                <path d="M407,574.41 L407,580.82 L217.38,580.82 L217.38,575.6 C241.032568,566.836156 257.071435,544.680669 258.010766,519.47419 C258.950097,494.267711 244.604694,470.97994 221.67,460.48 L405.75,460.48 C383.369223,470.750273 369.126338,493.22746 369.396496,517.850715 C369.666654,542.47397 384.399275,564.633248 407,574.41 L407,574.41 Z" id="Path" fill="#C8CAD7"></path>
                <path d="M405.75,460.49 C388.610763,468.355084 375.945032,483.545875 371.29,501.82 L256.13,501.82 C251.474968,483.545875 238.809237,468.355084 221.67,460.49 L405.75,460.49 Z" id="Path" fill="#000000" opacity="0.1"></path>
                <path d="M0.21,427.82 L0.21,463.82 C0.21,483.7 14.76,499.82 32.71,499.82 L590.71,499.82 C608.66,499.82 623.21,483.7 623.21,463.82 L623.21,427.82 L0.21,427.82 Z" id="Path" fill="#C8CAD7"></path>
                <path d="M407,574.41 L407,580.82 L217.38,580.82 L217.38,575.6 C222.578337,573.66994 227.495243,571.05342 232,567.82 L395.4,567.82 C399.020347,570.424439 402.909184,572.633701 407,574.41 Z" id="Path" fill="#000000" opacity="0.1"></path>
                <rect id="Rectangle" fill="#C8CAD7" x="154.71" y="569.82" width="315" height="19" rx="9.5"></rect>
                <path d="M623.21,33.32 C623.21,15.3707456 608.659254,0.82 590.71,0.82 L32.71,0.82 C14.7607456,0.82 0.21,15.3707456 0.21,33.32 L0.21,434.82 L623.21,434.82 L623.21,33.32 Z" id="Path" fill="#474157"></path>
                <rect id="Rectangle" fill="#EDEDF4" x="17.21" y="31.82" width="589" height="377" rx="16"></rect>
                <circle id="Oval" fill="#FFFFFF" cx="311.71" cy="16.32" r="7.5"></circle>
                <circle id="Oval" fill="#FFFFFF" cx="311.71" cy="465.32" r="18.5"></circle>
                <path d="M606.21,47.82 L17.21,47.82 C17.21,38.983444 24.373444,31.82 33.21,31.82 L590.21,31.82 C599.046556,31.82 606.21,38.983444 606.21,47.82 Z" id="Path" fill="#C8CAD7"></path>
                <circle id="Oval" fill="#EDEDF4" cx="33.21" cy="39.82" r="4"></circle>
                <circle id="Oval" fill="#EDEDF4" cx="45.21" cy="39.82" r="4"></circle>
                <circle id="Oval" fill="#EDEDF4" cx="57.21" cy="39.82" r="4"></circle>
                <rect id="Rectangle" fill="#FF5A5F" x="39.21" y="61.32" width="151" height="9"></rect>
                <rect id="Rectangle" fill="#FF5A5F" x="39.21" y="324.32" width="151" height="9"></rect>
                <rect id="Rectangle" fill="#FF6363" opacity="0.2" x="39.21" y="344.32" width="280" height="9"></rect>
                <rect id="Rectangle" fill="#FF6363" opacity="0.2" x="39.21" y="357.33" width="280" height="9"></rect>
                <rect id="Rectangle" fill="#FF6363" opacity="0.2" x="39.21" y="370.33" width="280" height="9"></rect>
                <rect id="Rectangle" fill="#FF6363" opacity="0.2" x="39.21" y="85.32" width="278" height="151"></rect>
                <rect id="Rectangle" fill="#FF6363" opacity="0.2" x="42.21" y="250.32" width="65" height="60"></rect>
                <rect id="Rectangle" fill="#FF6363" opacity="0.2" x="252.21" y="250.32" width="65" height="60"></rect>
                <rect id="Rectangle" fill="#FF6363" opacity="0.2" x="145.71" y="250.32" width="65" height="60"></rect>
                <rect id="Rectangle" fill="#FF6363" opacity="0.2" x="376.55" y="129.24" width="191.33" height="140.83"></rect>
                <rect id="Rectangle" fill="#EDEDF4" x="396.71" y="157.82" width="151" height="9"></rect>
                <rect id="Rectangle" fill="#EDEDF4" x="396.71" y="176.49" width="151" height="9"></rect>
                <rect id="Rectangle" fill="#EDEDF4" x="396.71" y="195.16" width="151" height="9"></rect>
                <rect id="Rectangle" fill="#EDEDF4" x="396.71" y="213.82" width="151" height="9"></rect>
                <rect id="Rectangle" fill="#EDEDF4" x="396.71" y="232.49" width="151" height="9"></rect>
                <rect id="Rectangle" fill="#FF5A5F" x="399.88" y="286.07" width="144.67" height="25.33"></rect>
                <rect id="Rectangle" fill="#FF5A5F" x="392.15" y="370.47" width="97.01" height="16.99"></rect>
            </g>
        </g>
    </g>
</svg>