<?xml version="1.0" encoding="UTF-8"?>
<svg width="4201px" height="2551px" viewBox="0 0 4201 2551" version="1.1" xmlns="http://www.w3.org/2000/svg" xmlns:xlink="http://www.w3.org/1999/xlink">
    <!-- Generator: Sketch 57.1 (83088) - https://sketch.com -->
    <title>Group 2</title>
    <desc>Created with Sketch.</desc>
    <g id="Welcome" stroke="none" stroke-width="1" fill="none" fill-rule="evenodd">
        <g id="Logo-Design" transform="translate(-2428.000000, -5227.000000)">
            <g id="Group-2" transform="translate(2453.191242, 5252.079450)">
                <g id="Group" stroke="#FFFFFF">
                    <path d="M17.0116408,351.624592 C-31.2588937,61.5798543 23.1963109,-49.0278819 180.377255,19.801383 C370.283067,102.960812 388.204195,195.984163 382.195774,285.691924 C370.283067,463.552684 172.815238,639.738373 382.195774,774.512427 C697.181724,977.262567 1219.13463,492.8687 1219.13463,102.960812 C1219.13463,-286.947077 1619.38841,3198.39404 550.770135,2373.37013 C96.3136099,2022.50817 362.424355,1525.63148 1464.20294,1250.92055 C1881.12586,1146.96746 2776.39155,1064.66861 4150,1004.024" id="Path-4" stroke-width="50" stroke-linecap="round" stroke-linejoin="round"></path>
                    <path d="M1759.87871,786.235958 C1747.23904,689.324268 1703.67771,665.095013 1629.19471,713.548193 C1581.1343,744.812766 1540.97585,846.232546 1532.65358,873.13957 C1478.67734,1047.65215 1554.41905,1047.65215 1759.87871,873.13957 C1872.40158,927.597835 1956.56934,955.390038 2012.382,956.516176 C2107.191,958.429149 2210.3336,903.934774 2290.68647,873.13957" id="Path-5" stroke-width="50" stroke-linecap="round" stroke-linejoin="round"></path>
                    <path d="M2332.36569,636.92055 L2290.68647,873.13957 C2386.5496,747.774543 2451.28169,685.092029 2484.88274,685.092029 C2518.48379,685.092029 2563.16862,730.995679 2618.93723,822.802979 C2670.12404,891.31144 2724.8038,897.488511 2782.97652,841.334191 C2841.14925,785.179871 2897.71993,717.04199 2952.68857,636.92055 L2913.48285,871.786611 C3005.55205,747.323556 3067.44552,685.092029 3099.16325,685.092029 C3130.88098,685.092029 3176.13638,730.995679 3234.92945,822.802979 C3261.93991,873.828148 3323.39128,880.005218 3419.28357,841.334191 C3515.17586,802.663163 3573.12282,734.525283 3593.12443,636.92055 C3579.97558,793.497924 3613.58418,871.786611 3693.95024,871.786611 C3774.3163,871.786611 3866.60366,793.497924 3970.81231,636.92055 C4145.78777,830.236752 4155.45325,917.710146 3999.80876,899.340732" id="Path-6" stroke-width="50" stroke-linecap="round" stroke-linejoin="round"></path>
                    <ellipse id="Oval" fill="#FFFFFF" cx="3603.80876" cy="511.92055" rx="36.5" ry="41.5"></ellipse>
                </g>
                <path d="M1738.12126,1476.5768 C1738.12126,1505.48319 1728.25808,1527.71604 1708.53141,1543.27602 C1688.80475,1558.83599 1660.58238,1566.61586 1623.86345,1566.61586 L1590.2697,1566.61586 L1590.2697,1678.92055 L1557.06657,1678.92055 L1557.06657,1393.37367 L1631.09001,1393.37367 C1702.44453,1393.37367 1738.12126,1421.10777 1738.12126,1476.5768 Z M1590.2697,1538.10024 L1620.15251,1538.10024 C1649.57974,1538.10024 1670.86859,1533.34768 1684.0197,1523.84242 C1697.1708,1514.33717 1703.74626,1499.10295 1703.74626,1478.1393 C1703.74626,1459.259 1697.56142,1445.19664 1685.19157,1435.9518 C1672.82172,1426.70696 1653.55108,1422.08461 1627.37907,1422.08461 L1590.2697,1422.08461 L1590.2697,1538.10024 Z M2127.37907,1678.92055 L2091.8322,1588.10024 L1977.37907,1588.10024 L1942.22282,1678.92055 L1908.62907,1678.92055 L2021.5197,1392.2018 L2049.44938,1392.2018 L2161.75407,1678.92055 L2127.37907,1678.92055 Z M2081.48063,1558.21742 L2048.27751,1469.74086 C2043.98061,1458.54289 2039.55357,1444.80605 2034.99626,1428.52992 C2032.13166,1441.02999 2028.03014,1454.76683 2022.69157,1469.74086 L1989.09782,1558.21742 L2081.48063,1558.21742 Z M2574.05876,1678.92055 L2536.16813,1678.92055 L2380.11345,1439.27211 L2378.55095,1439.27211 C2380.63429,1467.39725 2381.67595,1493.17825 2381.67595,1516.61586 L2381.67595,1678.92055 L2351.01188,1678.92055 L2351.01188,1393.37367 L2388.51188,1393.37367 L2544.17595,1632.04555 L2545.73845,1632.04555 C2545.47803,1628.52991 2544.8921,1617.23445 2543.98063,1598.15883 C2543.06917,1579.08321 2542.74365,1565.44403 2543.00407,1557.24086 L2543.00407,1393.37367 L2574.05876,1393.37367 L2574.05876,1678.92055 Z M2982.06657,1678.92055 L2946.5197,1588.10024 L2832.06657,1588.10024 L2796.91032,1678.92055 L2763.31657,1678.92055 L2876.2072,1392.2018 L2904.13688,1392.2018 L3016.44157,1678.92055 L2982.06657,1678.92055 Z M2936.16813,1558.21742 L2902.96501,1469.74086 C2898.66811,1458.54289 2894.24107,1444.80605 2889.68376,1428.52992 C2886.81916,1441.02999 2882.71764,1454.76683 2877.37907,1469.74086 L2843.78532,1558.21742 L2936.16813,1558.21742 Z M3331.28532,1529.31117 L3428.35563,1529.31117 L3428.35563,1668.17836 C3413.25139,1672.99609 3397.88696,1676.64189 3382.26188,1679.11586 C3366.6368,1681.58983 3348.53803,1682.8268 3327.96501,1682.8268 C3284.73563,1682.8268 3251.07711,1669.96886 3226.98845,1644.25258 C3202.89978,1618.53631 3190.85563,1582.50151 3190.85563,1536.14711 C3190.85563,1506.45946 3196.8126,1480.45061 3208.72673,1458.11977 C3220.64085,1435.78893 3237.79563,1418.73181 3260.19157,1406.94789 C3282.58752,1395.16398 3308.82423,1389.27211 3338.90251,1389.27211 C3369.37141,1389.27211 3397.75654,1394.87101 3424.05876,1406.06899 L3411.16813,1435.36586 C3385.38675,1424.42831 3360.58231,1418.95961 3336.75407,1418.95961 C3301.98827,1418.95961 3274.84011,1429.31107 3255.30876,1450.0143 C3235.77741,1470.71753 3226.01188,1499.42818 3226.01188,1536.14711 C3226.01188,1574.68897 3235.41934,1603.92045 3254.23454,1623.84242 C3273.04974,1643.7644 3300.68618,1653.72524 3337.1447,1653.72524 C3356.93646,1653.72524 3376.27221,1651.44661 3395.15251,1646.8893 L3395.15251,1558.99867 L3331.28532,1558.99867 L3331.28532,1529.31117 Z M3646.91032,1678.92055 L3646.91032,1393.37367 L3680.11345,1393.37367 L3680.11345,1678.92055 L3646.91032,1678.92055 Z M4069.56657,1602.94399 C4069.56657,1628.07432 4060.45208,1647.67048 4042.22282,1661.73305 C4023.99356,1675.79562 3999.25423,1682.8268 3968.00407,1682.8268 C3934.14973,1682.8268 3908.10833,1678.46486 3889.87907,1669.74086 L3889.87907,1637.70961 C3901.59788,1642.65755 3914.35817,1646.56376 3928.16032,1649.42836 C3941.96247,1652.29296 3955.63421,1653.72524 3969.17595,1653.72524 C3991.31147,1653.72524 4007.97797,1649.52606 4019.17595,1641.12758 C4030.37392,1632.7291 4035.97282,1621.04302 4035.97282,1606.06899 C4035.97282,1596.1731 4033.98716,1588.06772 4030.01579,1581.75258 C4026.04442,1575.43745 4019.40386,1569.61068 4010.09391,1564.27211 C4000.78397,1558.93354 3986.62396,1552.87892 3967.61345,1546.10805 C3941.05081,1536.60279 3922.07314,1525.33989 3910.67985,1512.31899 C3899.28657,1499.29809 3893.59001,1482.30607 3893.59001,1461.34242 C3893.59001,1439.33711 3901.85815,1421.82426 3918.3947,1408.80336 C3934.93124,1395.78246 3956.80602,1389.27211 3984.0197,1389.27211 C4012.40525,1389.27211 4038.51176,1394.48039 4062.34001,1404.89711 L4051.98845,1433.80336 C4028.42062,1423.90748 4005.50418,1418.95961 3983.23845,1418.95961 C3965.66023,1418.95961 3951.92339,1422.73562 3942.02751,1430.28774 C3932.13163,1437.83986 3927.18376,1448.32152 3927.18376,1461.73305 C3927.18376,1471.62893 3929.00666,1479.73432 3932.65251,1486.04946 C3936.29836,1492.36459 3942.45064,1498.1588 3951.10954,1503.43227 C3959.76844,1508.70573 3973.017,1514.5325 3990.85563,1520.91274 C4020.8037,1531.58987 4041.40896,1543.04809 4052.67204,1555.28774 C4063.93512,1567.52738 4069.56657,1583.41264 4069.56657,1602.94399 Z" id="PANAGIS" fill="#FFFFFF" fill-rule="nonzero"></path>
            </g>
        </g>
    </g>
</svg>