<?xml version="1.0" encoding="UTF-8"?>
<svg width="4160px" height="2551px" viewBox="0 0 4160 2551" version="1.1" xmlns="http://www.w3.org/2000/svg" xmlns:xlink="http://www.w3.org/1999/xlink">
    <!-- Generator: Sketch 57.1 (83088) - https://sketch.com -->
    <title>Group 2</title>
    <desc>Created with Sketch.</desc>
    <g id="Welcome" stroke="none" stroke-width="1" fill="none" fill-rule="evenodd">
        <g id="Logo-Design" transform="translate(-2428.000000, -5227.000000)">
            <g id="Group-2" transform="translate(2453.191242, 5252.079450)">
                <g id="Group" stroke="#FFFFFF">
                    <path d="M17.0116408,351.624592 C-31.2588937,61.5798543 23.1963109,-49.0278819 180.377255,19.801383 C370.283067,102.960812 388.204195,195.984163 382.195774,285.691924 C370.283067,463.552684 172.815238,639.738373 382.195774,774.512427 C697.181724,977.262567 1219.13463,492.8687 1219.13463,102.960812 C1219.13463,-286.947077 1619.38841,3198.39404 550.770135,2373.37013 C-161.642048,1823.35419 334.764826,1391.86658 2039.99076,1078.90732" id="Path-4" stroke-width="50" stroke-linecap="round" stroke-linejoin="round"></path>
                    <path d="M1759.87871,786.235958 C1747.23904,689.324268 1703.67771,665.095013 1629.19471,713.548193 C1581.1343,744.812766 1540.97585,846.232546 1532.65358,873.13957 C1478.67734,1047.65215 1554.41905,1047.65215 1759.87871,873.13957 C1872.40158,927.597835 1956.56934,955.390038 2012.382,956.516176 C2107.191,958.429149 2210.3336,903.934774 2290.68647,873.13957" id="Path-5" stroke-width="50" stroke-linecap="round" stroke-linejoin="round"></path>
                    <path d="M2332.36569,636.92055 L2290.68647,873.13957 C2386.5496,747.774543 2451.28169,685.092029 2484.88274,685.092029 C2518.48379,685.092029 2563.16862,730.995679 2618.93723,822.802979 C2670.12404,891.31144 2724.8038,897.488511 2782.97652,841.334191 C2841.14925,785.179871 2897.71993,717.04199 2952.68857,636.92055 L2913.48285,871.786611 C3005.55205,747.323556 3067.44552,685.092029 3099.16325,685.092029 C3130.88098,685.092029 3176.13638,730.995679 3234.92945,822.802979 C3261.93991,873.828148 3323.39128,880.005218 3419.28357,841.334191 C3515.17586,802.663163 3573.12282,734.525283 3593.12443,636.92055 C3579.97558,793.497924 3613.58418,871.786611 3693.95024,871.786611 C3774.3163,871.786611 3866.60366,793.497924 3970.81231,636.92055 C4145.78777,830.236752 4155.45325,917.710146 3999.80876,899.340732" id="Path-6" stroke-width="50" stroke-linecap="round" stroke-linejoin="round"></path>
                    <ellipse id="Oval" fill="#FFFFFF" cx="3603.80876" cy="511.92055" rx="36.5" ry="41.5"></ellipse>
                </g>
                <text id="PANAGIS" font-family="OpenSans-Regular, Open Sans" font-size="400" font-weight="normal" letter-spacing="150" fill="#FFFFFF">
                    <tspan x="1517.80876" y="1678.92055">PANAGIS</tspan>
                </text>
            </g>
        </g>
    </g>
</svg>