<?xml version="1.0" encoding="UTF-8"?>
<svg width="114px" height="113px" viewBox="0 0 114 113" version="1.1" xmlns="http://www.w3.org/2000/svg" xmlns:xlink="http://www.w3.org/1999/xlink">
    <!-- Generator: Sketch 57.1 (83088) - https://sketch.com -->
    <title>linkedin-grayscale</title>
    <desc>Created with Sketch.</desc>
    <g id="Welcome" stroke="none" stroke-width="1" fill="none" fill-rule="evenodd">
        <g id="Desktop" transform="translate(-52.000000, -209.000000)" fill-rule="nonzero">
            <g id="linkedin-grayscale" transform="translate(52.000000, 208.000000)">
                <ellipse id="Oval" fill="#A2A2A2" cx="56.5944425" cy="57.097" rx="56.5944425" ry="56.098"></ellipse>
                <path d="M90.4090619,61.611 L90.4090619,84.739 L76.8813982,84.739 L76.8813982,63.161 C76.8813982,57.743 74.9282655,54.043 70.0303009,54.043 C66.2925133,54.043 64.0720354,56.534 63.0914336,58.946 C62.7353097,59.808 62.6435044,61.005 62.6435044,62.214 L62.6435044,84.738 L49.1148319,84.738 C49.1148319,84.738 49.2964248,48.192 49.1148319,44.409 L62.6445133,44.409 L62.6445133,50.124 C62.6172743,50.169 62.5789381,50.213 62.5547257,50.256 L62.6445133,50.256 L62.6445133,50.124 C64.4422832,47.382 67.6484071,43.462 74.8364602,43.462 C83.736531,43.462 90.4090619,49.226 90.4090619,61.611 L90.4090619,61.611 Z M34.9626903,24.969 C30.3350973,24.969 27.3075398,27.98 27.3075398,31.936 C27.3075398,35.808 30.2473274,38.906 34.7851327,38.906 L34.8729027,38.906 C39.591292,38.906 42.5250265,35.808 42.5250265,31.936 C42.4352389,27.98 39.591292,24.969 34.9626903,24.969 L34.9626903,24.969 Z M28.1115929,84.739 L41.6352212,84.739 L41.6352212,44.409 L28.1115929,44.409 L28.1115929,84.739 Z" id="Shape" fill="#F1F2F2"></path>
            </g>
        </g>
    </g>
</svg>