<?xml version="1.0" encoding="UTF-8"?>
<svg width="114px" height="114px" viewBox="0 0 114 114" version="1.1" xmlns="http://www.w3.org/2000/svg" xmlns:xlink="http://www.w3.org/1999/xlink">
    <!-- Generator: Sketch 57.1 (83088) - https://sketch.com -->
    <title>medium-color</title>
    <desc>Created with Sketch.</desc>
    <g id="Welcome" stroke="none" stroke-width="1" fill="none" fill-rule="evenodd">
        <g id="Desktop" transform="translate(-852.000000, -45.000000)">
            <g id="medium-color" transform="translate(852.000000, 45.000000)">
                <circle id="Oval" fill="#000000" cx="57" cy="57" r="57"></circle>
                <g id="medium" transform="translate(21.000000, 27.000000)" fill="#FFFFFF" fill-rule="nonzero">
                    <path d="M67.1752083,6.81652632 L73,1.22410526 L73,0 L52.8215833,0 L38.4405833,35.9233684 L22.0794583,0 L0.921625,0 L0.921625,1.22410526 L7.72583333,9.44484211 C8.38891667,10.0523158 8.73566667,10.9406316 8.64745833,11.8350526 L8.64745833,44.1410526 C8.85733333,45.3041053 8.48016667,46.5007368 7.665,47.3463158 L0,56.6690526 L0,57.8778947 L21.7327083,57.8778947 L21.7327083,56.6537895 L14.0677083,47.3463158 C13.2373333,46.4976842 12.8449583,45.3224211 13.01225,44.1410526 L13.01225,16.1972632 L32.0895833,57.8931579 L34.3069583,57.8931579 L50.7106667,16.1972632 L50.7106667,49.4129474 C50.7106667,50.2890526 50.7106667,50.4691579 50.1388333,51.0430526 L44.238,56.7728421 L44.238,58 L72.8661667,58 L72.8661667,56.7758947 L67.17825,51.1865263 C66.6794167,50.808 66.420875,50.1730526 66.5273333,49.5564211 L66.5273333,8.44663158 C66.420875,7.82694737 66.676375,7.192 67.1752083,6.81652632 L67.1752083,6.81652632 Z" id="Path"></path>
                </g>
            </g>
        </g>
    </g>
</svg>