<?xml version="1.0" encoding="UTF-8"?>
<svg width="114px" height="114px" viewBox="0 0 114 114" version="1.1" xmlns="http://www.w3.org/2000/svg" xmlns:xlink="http://www.w3.org/1999/xlink">
    <!-- Generator: Sketch 57.1 (83088) - https://sketch.com -->
    <title>spotify-color</title>
    <desc>Created with Sketch.</desc>
    <g id="Welcome" stroke="none" stroke-width="1" fill="none" fill-rule="evenodd">
        <g id="Desktop" transform="translate(-541.000000, -44.000000)">
            <g id="spotify-color" transform="translate(541.000000, 44.000000)">
                <circle id="Oval" fill="#FFFFFF" cx="57" cy="57" r="57"></circle>
                <g id="spotify" fill="#00D95F" fill-rule="nonzero">
                    <path d="M57,0 C25.5197263,0 0,25.5197263 0,57 C0,88.4802737 25.5197263,114 57,114 C88.4802737,114 114,88.4802737 114,57 C114,25.5197263 88.4802737,0 57,0 Z M81.8071797,82.7225875 C81.0823707,83.9626799 79.7780345,84.6541674 78.4382442,84.654434 C77.770215,84.654434 77.0936556,84.4824951 76.4752088,84.1212902 C66.2321841,78.1351519 54.3990581,77.173094 46.273947,77.4202061 C37.2736805,77.6939755 30.6733606,79.4706771 30.6077839,79.488804 C28.5330549,80.0555358 26.3890172,78.8346366 25.8198863,76.7601742 C25.2510219,74.6859783 26.4676559,72.5432735 28.5413186,71.97201 C28.8388129,71.8901724 35.9413542,69.9609916 45.8181091,69.6352408 C51.6357739,69.443309 57.2364493,69.8487649 62.4623245,70.8401457 C69.0813044,72.0956993 75.1191576,74.2997157 80.408477,77.3908832 C82.2672827,78.4768971 82.8931935,80.8643149 81.8071797,82.7225875 Z M89.0536698,67.6722054 C88.1953083,69.1412831 86.6502577,69.9601919 85.0630887,69.9604585 C84.2719033,69.9604585 83.4703217,69.7570642 82.7377821,69.3289497 C70.6050293,62.2381376 56.5878799,61.0990759 46.9638351,61.3915052 C36.3025591,61.7159232 28.4842723,63.8205083 28.4066998,63.841834 C25.9497068,64.5122623 23.4095433,63.0671761 22.735383,60.6099165 C22.0614892,58.1526568 23.5028434,55.6148925 25.9590368,54.9380665 C26.3114448,54.8410343 34.7244535,52.5557135 46.4237604,52.169984 C53.3154434,51.9428648 59.9493513,52.4229607 66.1394171,53.5972099 C73.9798294,55.084681 81.1316865,57.6952195 87.3969255,61.3565843 C89.5988093,62.6430602 90.3404123,65.4708548 89.0536698,67.6722054 Z M93.5083526,53.9877377 C92.5377644,53.9877377 91.5546472,53.7382264 90.6560334,53.2130798 C61.8110894,36.3556069 24.3937267,46.3773769 24.0191932,46.4808068 C21.0034654,47.3117114 17.8859072,45.5406078 17.0552692,42.5251466 C16.2243647,39.5096854 17.9954683,36.3918607 21.0109294,35.5612227 C21.4430425,35.442065 31.7625733,32.6390617 46.1129376,32.1658966 C54.5667318,31.8875955 62.7035721,32.4761862 70.2963391,33.9164741 C79.913453,35.7408921 88.6863337,38.9429536 96.3710681,43.4341567 C99.0714413,45.0122623 99.9812511,48.4806291 98.4031455,51.1810023 C97.3501866,52.9830283 95.4551271,53.9877377 93.5083526,53.9877377 Z" id="Shape"></path>
                </g>
            </g>
        </g>
    </g>
</svg>