<?xml version="1.0" encoding="UTF-8"?>
<svg width="114px" height="114px" viewBox="0 0 114 114" version="1.1" xmlns="http://www.w3.org/2000/svg" xmlns:xlink="http://www.w3.org/1999/xlink">
    <!-- Generator: Sketch 57.1 (83088) - https://sketch.com -->
    <title>twitter-color</title>
    <desc>Created with Sketch.</desc>
    <g id="Welcome" stroke="none" stroke-width="1" fill="none" fill-rule="evenodd">
        <g id="Desktop" transform="translate(-378.000000, -45.000000)" fill-rule="nonzero">
            <g id="twitter-color" transform="translate(378.000000, 45.000000)">
                <circle id="Oval" fill="#55ACEE" cx="56.5954513" cy="56.5944425" r="56.5944425"></circle>
                <path d="M91.2615398,40.6727788 C88.8362655,41.7482124 86.2273805,42.4755929 83.4913805,42.8004425 C86.284885,41.1267611 88.4286903,38.478531 89.4405664,35.3178053 C86.8266372,36.8684071 83.9302301,37.9932743 80.8502124,38.5995929 C78.3825664,35.9715398 74.8667257,34.3291327 70.9735752,34.3291327 C63.5040531,34.3291327 57.4459115,40.3872743 57.4459115,47.8567965 C57.4459115,48.9170973 57.5659646,49.9491504 57.798,50.9398407 C46.5553805,50.3758938 36.5869381,44.9906549 29.9144071,36.8038407 C28.7501947,38.8013628 28.0823363,41.1267611 28.0823363,43.6055044 C28.0823363,48.2976637 30.4723009,52.44 34.1001239,54.8652743 C31.8836814,54.7956637 29.7963717,54.1873274 27.9733805,53.1714159 C27.9723717,53.2289204 27.9723717,53.2864248 27.9723717,53.3429204 C27.9723717,59.8974159 32.637292,65.3643717 38.8245664,66.6062655 C37.6906195,66.9169912 36.493115,67.0814336 35.2613097,67.0814336 C34.387646,67.0814336 33.5412212,66.9976991 32.7159823,66.8403186 C34.4370796,72.2134513 39.4318938,76.1247611 45.3528319,76.2347257 C40.7222124,79.8635575 34.8900531,82.0255221 28.5504425,82.0255221 C27.460885,82.0255221 26.3814159,81.9619646 25.3251504,81.8358584 C31.3086372,85.6755398 38.4210265,87.914177 46.0600354,87.914177 C70.9423009,87.914177 84.5496637,67.3013628 84.5496637,49.4235398 C84.5496637,48.8373982 84.5365487,48.2532743 84.5103186,47.6741947 C87.1555221,45.767469 89.4486372,43.3855752 91.2615398,40.6727788 L91.2615398,40.6727788 Z" id="Path" fill="#FFFFFF"></path>
            </g>
        </g>
    </g>
</svg>