<?xml version="1.0" encoding="UTF-8"?>
<svg width="58px" height="159px" viewBox="0 0 58 159" version="1.1" xmlns="http://www.w3.org/2000/svg" xmlns:xlink="http://www.w3.org/1999/xlink">
    <!-- Generator: Sketch 57.1 (83088) - https://sketch.com -->
    <title>lego-yannis-full-stack</title>
    <desc>Created with Sketch.</desc>
    <g id="Page-1" stroke="none" stroke-width="1" fill="none" fill-rule="evenodd">
        <g id="Inspiration" transform="translate(-583.000000, -286.000000)">
            <g id="lego-yannis-full-stack" transform="translate(585.000000, 288.000000)">
                <path d="M20.7003114,5 L34.2996886,5 C35.2389452,5 36,5.74616626 36,6.66628518 L36,15 L19,15 L19,6.66628518 C19,5.74616626 19.7610548,5 20.7003114,5 L20.7003114,5 Z" id="Path" fill="#FEC108" fill-rule="nonzero"></path>
                <polygon id="Path" fill="#FEC108" fill-rule="nonzero" points="14 52 41 52 41 66 14 66"></polygon>
                <path d="M14.4335327,12 L40.5664673,12 C46.8813781,12 52,17.0365392 52,23.2494483 L52,45.7498162 C52,51.9627251 46.8813781,57 40.5664673,57 L14.4335327,57 C8.11862192,57 3,51.9627251 3,45.7498162 L3,23.2494483 C3,17.0365392 8.11862192,12 14.4335327,12 Z" id="Path" fill="#FEC108" fill-rule="nonzero"></path>
                <path d="M37.9001487,12 L17.0998513,12 C12.0742162,12 8,17.0365392 8,23.2494483 L8,45.7498162 C8,51.9627251 12.0742162,57 17.0998513,57 L37.9001487,57 C42.9257838,57 47,51.9627251 47,45.7498162 L47,23.2494483 C47,17.0365392 42.9257838,12 37.9001487,12 L37.9001487,12 Z" id="Path" fill="#FFDC00" fill-rule="nonzero"></path>
                <path d="M35,44 C33.7127436,46.6279483 29.6948995,47 27.5003646,47 C25.3007244,47 21.2872562,46.6279483 20,44 C22.4549036,44.6307382 24.9717994,44.9601827 27.5003646,44.9807253 C30.0282006,44.9601827 32.5458257,44.6314989 35,44 L35,44 Z" id="Path" fill="#000000" fill-rule="nonzero"></path>
                <path d="M22.783551,23.6124686 C21.1558543,23.0375678 19.4466163,22.704968 17.7138563,22.6259568 C15.3852152,22.4573994 13.0542221,22.9337244 11,24 C11.2344323,21.123238 18.1835049,20.5543568 21.5800277,21.2940527 C22.118673,21.3587668 22.5875374,21.6778217 22.8298101,22.1436117 C23.072083,22.6094019 23.0548337,23.1609757 22.783551,23.6124686 Z" id="Path" fill="#B66B43" fill-rule="nonzero"></path>
                <path d="M20,30.5 C20,28.5672647 18.4330509,27 16.5,27 C14.5669489,27 13,28.5672647 13,30.5 C13,32.4327355 14.5669489,34 16.5,34 C18.4330509,34 20,32.4327355 20,30.5 Z" id="Path" fill="#000000" fill-rule="nonzero"></path>
                <path d="M18.0330908,29.0984484 C17.2593712,28.8039268 16.3929698,29.1925031 16.0984484,29.9669092 C15.8039269,30.7413154 16.192503,31.6070301 16.9669092,31.9015516 C17.7413153,32.1960732 18.6077167,31.8074969 18.9015516,31.0330908 C19.1960731,30.2586846 18.807497,29.3929699 18.0330908,29.0984484 Z" id="Path" fill="#FFFFFF" fill-rule="nonzero"></path>
                <path d="M32.216449,23.6124686 C33.8441457,23.0375678 35.5533837,22.704968 37.2861437,22.6259568 C39.6147848,22.4573994 41.9457779,22.9337244 44,24 C43.7655677,21.123238 36.8164951,20.5543568 33.4199723,21.2940527 C32.881327,21.3587668 32.4124626,21.6778217 32.1701899,22.1436117 C31.927917,22.6094019 31.9451663,23.1609757 32.216449,23.6124686 L32.216449,23.6124686 Z" id="Path" fill="#B66B43" fill-rule="nonzero"></path>
                <path d="M41,30.5 C41,28.5672647 39.4330511,27 37.5,27 C35.5669491,27 34,28.5672647 34,30.5 C34,32.4327355 35.5669491,34 37.5,34 C39.4330511,34 41,32.4327355 41,30.5 Z" id="Path" fill="#000000" fill-rule="nonzero"></path>
                <path d="M37.9015516,29.9671245 C37.6070302,29.1928003 36.7406288,28.8042652 35.9669092,29.0980691 C35.192503,29.3925593 34.8039269,30.2588689 35.0984484,31.0331931 C35.3922833,31.8075173 36.2586847,32.1960524 37.0330908,31.901562 C37.807497,31.6070717 38.1960731,30.7407623 37.9015516,29.9671245 Z" id="Path" fill="#FFFFFF" fill-rule="nonzero"></path>
                <path d="M39.9996281,59 L14.0003719,59 C6.82364886,58.9917757 1.00892627,53.1464081 1,45.9335329 L1,23.0664675 C1.00892627,15.8535921 6.82364886,10.0082245 14.0003719,10 L39.9996281,10 C47.1763511,10.0082245 52.9910737,15.8535921 53,23.0664675 L53,45.9335329 C52.9910737,53.1464081 47.1763511,58.9917757 39.9996281,59 Z M14.0003719,13.266617 C8.61782962,13.2725984 4.25585782,17.6569978 4.25065078,23.0664675 L4.25065078,45.9335329 C4.25585782,51.3430024 8.61782962,55.7274018 14.0003719,55.7333832 L39.9996281,55.7333832 C45.3821704,55.7274018 49.7441422,51.3430024 49.7493492,45.9335329 L49.7493492,23.0664675 C49.7441422,17.6569978 45.3821704,13.2725984 39.9996281,13.266617 L14.0003719,13.266617 Z" id="Shape" fill="#000000" fill-rule="nonzero"></path>
                <path d="M14.4335327,59 L40.5664673,59 C46.8813781,59 52,64.0365392 52,70.2494483 L52,92.7498162 C52,98.9627251 46.8813781,104 40.5664673,104 L14.4335327,104 C8.11862192,104 3,98.9627251 3,92.7498162 L3,70.2494483 C3,64.0365392 8.11862192,59 14.4335327,59 Z" id="Path" fill="#FEC108" fill-rule="nonzero"></path>
                <path d="M40.9001487,57 L20.0998513,57 C15.0742162,57 11,62.0365392 11,68.2494483 L11,90.7498162 C11,96.9627251 15.0742162,102 20.0998513,102 L40.9001487,102 C45.9257838,102 50,96.9627251 50,90.7498162 L50,68.2494483 C50,62.0365392 45.9257838,57 40.9001487,57 L40.9001487,57 Z" id="Path" fill="#FFDC00" fill-rule="nonzero"></path>
                <path d="M39.9996281,105 L14.0003719,105 C6.82364886,104.991776 1.00892627,99.1464081 1,91.9335329 L1,69.0664675 C1.00892627,61.8535921 6.82364886,56.0082245 14.0003719,56 L39.9996281,56 C47.1763511,56.0082245 52.9910737,61.8535921 53,69.0664675 L53,91.9335329 C52.9910737,99.1464081 47.1763511,104.991776 39.9996281,105 Z M14.0003719,59.266617 C8.61782962,59.2725984 4.25585782,63.6569978 4.25065078,69.0664675 L4.25065078,91.9335329 C4.25585782,97.3430024 8.61782962,101.727402 14.0003719,101.733383 L39.9996281,101.733383 C45.3821704,101.727402 49.7441422,97.3430024 49.7493492,91.9335329 L49.7493492,69.0664675 C49.7441422,63.6569978 45.3821704,59.2725984 39.9996281,59.266617 L14.0003719,59.266617 Z" id="Shape" fill="#000000" fill-rule="nonzero"></path>
                <path d="M14.4335327,105 L40.5664673,105 C46.8813781,105 52,110.036539 52,116.249448 L52,138.749816 C52,144.962725 46.8813781,150 40.5664673,150 L14.4335327,150 C8.11862192,150 3,144.962725 3,138.749816 L3,116.249448 C3,110.036539 8.11862192,105 14.4335327,105 Z" id="Path" fill="#FEC108" fill-rule="nonzero"></path>
                <path d="M24.783551,67.6124686 C23.1558543,67.0375678 21.4466163,66.704968 19.7138563,66.6259568 C17.3852152,66.4573994 15.0542221,66.9337244 13,68 C13.2344323,65.123238 20.1835049,64.5543568 23.5800277,65.2940527 C24.118673,65.3587668 24.5875374,65.6778217 24.8298101,66.1436117 C25.072083,66.6094019 25.0548337,67.1609757 24.783551,67.6124686 Z" id="Path" fill="#B66B43" fill-rule="nonzero"></path>
                <path d="M32.9001487,104 L12.0998513,104 C7.07421619,104 3,109.036539 3,115.249448 L3,137.749816 C3,143.962725 7.07421619,149 12.0998513,149 L32.9001487,149 C37.9257838,149 42,143.962725 42,137.749816 L42,115.249448 C42,109.036539 37.9257838,104 32.9001487,104 L32.9001487,104 Z" id="Path" fill="#FFDC00" fill-rule="nonzero"></path>
                <path d="M25,76.5 C25,74.5672647 23.4330509,73 21.5,73 C19.5669489,73 18,74.5672647 18,76.5 C18,78.4327355 19.5669489,80 21.5,80 C23.4330509,80 25,78.4327355 25,76.5 Z" id="Path" fill="#000000" fill-rule="nonzero"></path>
                <path d="M23.0330908,75.0984484 C22.2593712,74.8039268 21.3929698,75.1925031 21.0984484,75.9669092 C20.8039269,76.7413154 21.192503,77.6070301 21.9669092,77.9015516 C22.7413153,78.1960732 23.6077167,77.8074969 23.9015516,77.0330908 C24.1960731,76.2586846 23.807497,75.3929699 23.0330908,75.0984484 Z" id="Path" fill="#FFFFFF" fill-rule="nonzero"></path>
                <path d="M36.6225518,68.9482324 C38.1555529,68.465735 39.7653866,68.1867056 41.3974076,68.120614 C43.5906586,67.9794188 45.7862085,68.3797213 47.721153,69.2753555 C47.4999757,66.8597505 40.954792,66.3810562 37.7558113,67.0016714 C37.2484869,67.0559322 36.8069199,67.3237691 36.5787914,67.7148502 C36.3506627,68.1059314 36.3669808,68.5690815 36.6225518,68.9482324 L36.6225518,68.9482324 Z" id="Path" fill="#B66B43" fill-rule="nonzero" transform="translate(42.069869, 68.015288) rotate(3.000000) translate(-42.069869, -68.015288) "></path>
                <path d="M17.783551,114.612469 C16.1558543,114.037568 14.4466163,113.704968 12.7138563,113.625957 C10.3852152,113.457399 8.05422206,113.933724 6,115 C6.23443226,112.123238 13.1835049,111.554357 16.5800277,112.294053 C17.118673,112.358767 17.5875374,112.677822 17.8298101,113.143612 C18.072083,113.609402 18.0548337,114.160976 17.783551,114.612469 Z" id="Path" fill="#B66B43" fill-rule="nonzero"></path>
                <path d="M29.0876681,114.921299 C30.6206692,114.438802 32.2305029,114.159773 33.8625239,114.093681 C36.0557749,113.952486 38.2513248,114.352788 40.1862693,115.248423 C39.965092,112.832818 33.4199083,112.354123 30.2209276,112.974738 C29.7136032,113.028999 29.2720362,113.296836 29.0439077,113.687917 C28.815779,114.078998 28.8320971,114.542148 29.0876681,114.921299 L29.0876681,114.921299 Z" id="Path" fill="#B66B43" fill-rule="nonzero" transform="translate(34.534985, 113.988355) rotate(3.000000) translate(-34.534985, -113.988355) "></path>
                <path d="M45,76.5 C45,74.5672647 43.4330511,73 41.5,73 C39.5669491,73 38,74.5672647 38,76.5 C38,78.4327355 39.5669491,80 41.5,80 C43.4330511,80 45,78.4327355 45,76.5 Z" id="Path" fill="#000000" fill-rule="nonzero"></path>
                <path d="M43.9015516,75.9671245 C43.6070302,75.1928003 42.7406288,74.8042652 41.9669092,75.0980691 C41.192503,75.3925593 40.8039269,76.2588689 41.0984484,77.0331931 C41.3922833,77.8075173 42.2586847,78.1960524 43.0330908,77.901562 C43.807497,77.6070717 44.1960731,76.7407623 43.9015516,75.9671245 Z" id="Path" fill="#FFFFFF" fill-rule="nonzero"></path>
                <path d="M16,122.5 C16,120.567265 14.4330509,119 12.5,119 C10.5669489,119 9,120.567265 9,122.5 C9,124.432735 10.5669489,126 12.5,126 C14.4330509,126 16,124.432735 16,122.5 Z" id="Path" fill="#000000" fill-rule="nonzero"></path>
                <path d="M14.0330908,121.098448 C13.2593712,120.803927 12.3929698,121.192503 12.0984484,121.966909 C11.8039269,122.741315 12.192503,123.60703 12.9669092,123.901552 C13.7413153,124.196073 14.6077167,123.807497 14.9015516,123.033091 C15.1960731,122.258685 14.807497,121.39297 14.0330908,121.098448 Z" id="Path" fill="#FFFFFF" fill-rule="nonzero"></path>
                <path d="M36,122.5 C36,120.567265 34.4330511,119 32.5,119 C30.5669491,119 29,120.567265 29,122.5 C29,124.432735 30.5669491,126 32.5,126 C34.4330511,126 36,124.432735 36,122.5 Z" id="Path" fill="#000000" fill-rule="nonzero"></path>
                <path d="M34.9015516,121.967124 C34.6070302,121.1928 33.7406288,120.804265 32.9669092,121.098069 C32.192503,121.392559 31.8039269,122.258869 32.0984484,123.033193 C32.3922833,123.807517 33.2586847,124.196052 34.0330908,123.901562 C34.807497,123.607072 35.1960731,122.740762 34.9015516,121.967124 Z" id="Path" fill="#FFFFFF" fill-rule="nonzero"></path>
                <path d="M39.9996281,151 L14.0003719,151 C6.82364886,150.991776 1.00892627,145.146408 1,137.933533 L1,115.066467 C1.00892627,107.853592 6.82364886,102.008225 14.0003719,102 L39.9996281,102 C47.1763511,102.008225 52.9910737,107.853592 53,115.066467 L53,137.933533 C52.9910737,145.146408 47.1763511,150.991776 39.9996281,151 Z M14.0003719,105.266617 C8.61782962,105.272598 4.25585782,109.656998 4.25065078,115.066467 L4.25065078,137.933533 C4.25585782,143.343002 8.61782962,147.727402 14.0003719,147.733383 L39.9996281,147.733383 C45.3821704,147.727402 49.7441422,143.343002 49.7493492,137.933533 L49.7493492,115.066467 C49.7441422,109.656998 45.3821704,105.272598 39.9996281,105.266617 L14.0003719,105.266617 Z" id="Shape" fill="#000000" fill-rule="nonzero"></path>
                <g id="Group" transform="translate(5.000000, 24.000000)" stroke="#000000" stroke-width="3">
                    <path d="M0,4.61506534 C2.54698942,2.74563837 4.57343468,1.62231036 6.0793358,1.24508132 C7.17188933,0.971396067 9.25157731,0.483666851 10.5312944,0.483666851 C12.1912443,0.483666851 15.1129577,0.688999052 16.0163152,1.07042175 C17.4450708,1.67368213 18.4093798,2.40064503 19.0126274,4.31937389 C19.134453,4.70686036 19.2432773,5.05456445 19.3503435,5.46414862 C19.4574097,5.87373278 19.5839976,6.24471204 19.6478873,6.72975566 C19.711777,7.21479927 19.711777,4.89692877 19.6478873,5.46414862 C19.6397825,5.53610417 19.6730632,10.0153224 19.0718129,11.1154139 C18.4705625,12.2155055 18.2090405,12.5660063 17.7687492,13.0496512 C17.3284579,13.533296 16.5247502,14.2232732 15.5938001,14.7244594 C14.6667334,15.2235549 12.9792316,15.5065857 10.5312944,15.573552 C9.97461849,15.597468 9.58379228,15.597468 9.35881581,15.573552 C8.91131078,15.5259802 7.08324109,15.466388 6.0793358,14.999694 C3.87144815,13.9732945 3.13227494,12.455175 2.95396016,12.1429145 C2.14778444,10.7311591 1.74469658,9.20287743 1.74469658,7.55806956 L0,6.72975566 L0,4.61506534 Z" id="Path-3" stroke-linejoin="round"></path>
                    <path d="M24.96048,4.70686036 C25.4961428,4.13744184 25.8726676,3.77741237 26.0900545,3.62677194 C28.1698603,2.18554979 29.495846,1.72751599 30.7976457,1.40141447 C31.8901992,1.12772922 33.9698872,0.64 35.2496043,0.64 C36.9095542,0.64 39.8312675,0.8453322 40.7346251,1.2267549 C42.1633807,1.83001528 43.1276896,2.55697818 43.7309372,4.47570704 C43.8527628,4.86319351 43.9615871,5.2108976 44.0686534,5.62048177 C44.1757196,6.03006593 44.3023075,6.40104519 44.3661972,6.88608881 C44.4300869,7.37113242 44.4300869,5.05326192 44.3661972,5.62048177 C44.3580924,5.69243732 44.3913731,10.1716556 43.7901227,11.2717471 C43.1888724,12.3718386 42.9273504,12.7223395 42.487059,13.2059843 C42.0467677,13.6896292 41.2430601,14.3796063 40.3121099,14.8807926 C39.3850433,15.379888 37.6975414,15.6629189 35.2496043,15.7298852 C34.6929283,15.7538012 34.3021021,15.7538012 34.0771257,15.7298852 C33.6296206,15.6823133 31.8015509,15.6227211 30.7976457,15.1560272 C28.589758,14.1296277 27.8505848,12.6115081 27.67227,12.2992476 C26.8660943,10.8874922 26.3386891,9.34774301 26.0900545,7.68 L24.7183099,6.88608881 L24.96048,4.70686036 Z" id="Path-3" stroke-linejoin="round" transform="translate(34.566212, 8.193911) scale(-1, 1) translate(-34.566212, -8.193911) "></path>
                    <path d="M1.85714014,3.79869812 L1.74469658,7.968871" id="Path-4"></path>
                    <path d="M43.415493,4.16 L43.0423698,7.68" id="Path-4"></path>
                    <path d="M19.6478873,4.56914715 C20.7648177,4.3260981 21.6073776,4.20457357 22.1755671,4.20457357 C23.0278514,4.20457357 24.703247,4.56914715 24.703247,4.56914715" id="Path-5" stroke-linecap="round" stroke-linejoin="round"></path>
                </g>
                <g id="Group" transform="translate(3.000000, 70.000000)" stroke="#000000">
                    <path d="M5.65384615,4.61506534 C8.17834079,2.74563837 10.1868887,1.62231036 11.6794898,1.24508132 C12.762394,0.971396067 14.8237144,0.483666851 16.0921292,0.483666851 C17.7374185,0.483666851 20.6333276,0.688999052 21.5287067,1.07042175 C22.9448437,1.67368213 23.900636,2.40064503 24.4985557,4.31937389 C24.6193054,4.70686036 24.7271685,5.05456445 24.8332892,5.46414862 C24.9394098,5.87373278 25.0648797,6.24471204 25.1282051,6.72975566 C25.1915305,7.21479927 25.1915305,4.89692877 25.1282051,5.46414862 C25.1201719,5.53610417 25.1531587,10.0153224 24.5572185,11.1154139 C23.9612784,12.2155055 23.7020661,12.5660063 23.2656634,13.0496512 C22.8292607,13.533296 22.0326513,14.2232732 21.1099232,14.7244594 C20.1910443,15.2235549 18.5184463,15.5065857 16.0921292,15.573552 C15.5403697,15.597468 15.1529953,15.597468 14.9300058,15.573552 C14.4864531,15.5259802 12.6745287,15.466388 11.6794898,14.999694 C9.49110203,13.9732945 8.75845712,12.455175 8.58171721,12.1429145 C7.78266156,10.7311591 7.38313373,9.20287743 7.38313373,7.55806956 L5.65384615,6.72975566 L5.65384615,4.61506534 Z" id="Path-3" stroke-width="3" stroke-linejoin="round"></path>
                    <path d="M30.1538462,4.47570704 C30.3943328,4.06039074 30.6223095,3.77741237 30.8377765,3.62677194 C32.8992136,2.18554979 34.2134883,1.72751599 35.5037906,1.40141447 C36.5866948,1.12772922 38.6480152,0.64 39.91643,0.64 C41.5617193,0.64 44.4576284,0.8453322 45.3530075,1.2267549 C46.7691445,1.83001528 47.7249368,2.55697818 48.3228565,4.47570704 C48.4436062,4.86319351 48.5514694,5.2108976 48.65759,5.62048177 C48.7637106,6.03006593 48.8891805,6.40104519 48.9525059,6.88608881 C49.0158314,7.37113242 49.0158314,5.05326192 48.9525059,5.62048177 C48.9444727,5.69243732 48.9774595,10.1716556 48.3815193,11.2717471 C47.7855792,12.3718386 47.5263669,12.7223395 47.0899642,13.2059843 C46.6535615,13.6896292 45.8569521,14.3796063 44.934224,14.8807926 C44.0153452,15.379888 42.3427471,15.6629189 39.91643,15.7298852 C39.3646705,15.7538012 38.9772961,15.7538012 38.7543066,15.7298852 C38.3107539,15.6823133 36.4988295,15.6227211 35.5037906,15.1560272 C33.3154028,14.1296277 32.5827579,12.6115081 32.406018,12.2992476 C31.6069624,10.8874922 31.0842152,9.34774301 30.8377765,7.68 L30.1538462,6.57664009 L30.1538462,4.47570704 Z" id="Path-3" stroke-width="3" stroke-linejoin="round" transform="translate(39.576923, 8.193911) scale(-1, 1) translate(-39.576923, -8.193911) "></path>
                    <path d="M7.49458421,3.79869812 L7.38313373,7.968871" id="Path-4" stroke-width="3"></path>
                    <path d="M48.6858974,4.16 L48.3160696,7.68" id="Path-4" stroke-width="3"></path>
                    <path d="M25.1282051,4.56914715 C26.2352709,4.3260981 27.0703894,4.20457357 27.6335607,4.20457357 C28.4783177,4.20457357 30.1389163,4.56914715 30.1389163,4.56914715" id="Path-5" stroke-width="3" stroke-linecap="round" stroke-linejoin="round"></path>
                    <path d="M-4.08562073e-14,5.44 C2.22281593,5.44 3.89443972,5.44 5.01487135,5.44 C6.13530299,5.44 6.60296258,5.44 6.41785013,5.44" id="Path-2" stroke-width="4" stroke-linecap="round" stroke-linejoin="round"></path>
                </g>
                <g id="Group" transform="translate(1.000000, 115.000000)" stroke="#000000" stroke-width="3">
                    <path d="M0.607117265,4.38686036 C2.30929145,2.66957004 3.90711427,1.62231036 5.40058573,1.24508132 C6.48412135,0.971396067 8.54664366,0.483666851 9.81579803,0.483666851 C11.4620467,0.483666851 14.3596444,0.688999052 15.2555456,1.07042175 C16.6725083,1.67368213 17.6288579,2.40064503 18.2271263,4.31937389 C18.3479464,4.70686036 18.4558724,5.05456445 18.562055,5.46414862 C18.6682375,5.87373278 18.7937805,6.24471204 18.8571429,6.72975566 C18.9205052,7.21479927 18.9205052,4.89692877 18.8571429,5.46414862 C18.8491049,5.53610417 18.882111,10.0153224 18.2858233,11.1154139 C17.6895357,12.2155055 17.4301722,12.5660063 16.9935151,13.0496512 C16.5568579,13.533296 15.759784,14.2232732 14.8365179,14.7244594 C13.9171033,15.2235549 12.24353,15.5065857 9.81579803,15.573552 C9.26371688,15.597468 8.87611654,15.597468 8.65299701,15.573552 C8.20918568,15.5259802 6.39620481,15.466388 5.40058573,14.999694 C3.21092191,13.9732945 2.47784981,12.455175 2.30100684,12.1429145 C1.50148527,10.7311591 1.10172448,9.20287743 1.10172448,7.55806956 L0.607117265,6.72975566 L0.607117265,4.38686036 Z" id="Path-3" stroke-linejoin="round"></path>
                    <path d="M24.1258855,4.70686036 C24.657127,4.13744184 25.030544,3.77741237 25.2461366,3.62677194 C27.3087757,2.18554979 28.6238168,1.72751599 29.9148714,1.40141447 C30.9984071,1.12772922 33.0609294,0.64 34.3300837,0.64 C35.9763324,0.64 38.8739301,0.8453322 39.7698313,1.2267549 C41.186794,1.83001528 42.1431436,2.55697818 42.741412,4.47570704 C42.8622321,4.86319351 42.9701581,5.2108976 43.0763407,5.62048177 C43.1825232,6.03006593 43.3080662,6.40104519 43.3714286,6.88608881 C43.4347909,7.37113242 43.4347909,5.05326192 43.3714286,5.62048177 C43.3633906,5.69243732 43.3963967,10.1716556 42.800109,11.2717471 C42.2038214,12.3718386 41.9444579,12.7223395 41.5078008,13.2059843 C41.0711436,13.6896292 40.2740698,14.3796063 39.3508036,14.8807926 C38.431389,15.379888 36.7578157,15.6629189 34.3300837,15.7298852 C33.7780026,15.7538012 33.3904023,15.7538012 33.1672827,15.7298852 C32.7234714,15.6823133 30.9104905,15.6227211 29.9148714,15.1560272 C27.7252076,14.1296277 26.9921355,12.6115081 26.8152926,12.2992476 C26.015771,10.8874922 25.492719,9.34774301 25.2461366,7.68 L23.8857143,6.88608881 L24.1258855,4.70686036 Z" id="Path-3" stroke-linejoin="round" transform="translate(33.652332, 8.193911) scale(-1, 1) translate(-33.652332, -8.193911) "></path>
                    <path d="M1.21323994,3.79869812 L1.10172448,7.968871" id="Path-4"></path>
                    <path d="M42.4285714,4.16 L42.058528,7.68" id="Path-4"></path>
                    <path d="M18.8571429,4.56914715 C19.9648541,4.3260981 20.8004596,4.20457357 21.3639593,4.20457357 C22.2092088,4.20457357 23.8707757,4.56914715 23.8707757,4.56914715" id="Path-5" stroke-linecap="round" stroke-linejoin="round"></path>
                </g>
                <g id="hair" stroke="#000000">
                    <path d="M38.926031,5.05263158 L38.3023256,11.7254505 C39.9312871,13.7087163 41.3292532,15.2484396 42.496224,16.3446202 C43.6631948,17.4408009 45.6779835,19.1068098 48.5405902,21.342647 C48.2559326,28.9847161 48.8953848,33.5936192 50.458947,35.1693562 C52.8042902,37.5329618 54.5452497,25.5096177 52.8042902,16.0059033 C52.2507649,12.984267 49.6744659,10.2992789 47.5445299,8.49890502 C46.4805882,7.5995856 44.7879104,6.42701254 42.496224,5.68421053 C41.7875895,5.45452152 40.5975252,5.24399521 38.926031,5.05263158 Z" id="Path-15" stroke-width="4" fill="#B66B43"></path>
                    <path d="M39.6972062,5.68421053 C37.5906492,1.89473684 31.6767749,-3.55271368e-15 21.9555832,-3.55271368e-15 C13.4718927,-3.55271368e-15 6.90108976,2.63222561 4.1991854,5.37664303 C2.25705012,7.34933679 2.90336432,9.37991762 3.51937386,10.532927 C4.23098984,11.8648867 0.677045152,13.5342447 0.128072699,19.4366098 C-0.459295999,25.7517983 1.14580583,35.3498041 1.47036761,35.503495 C2.09827458,35.8008301 3.47048582,34.6521616 5.02110157,20.1681861 C5.23830427,18.1393413 6.54090853,17.1771309 7.56963621,16.1751142 C9.43400195,14.359157 11.9222327,13.4553739 16.2158824,13.2257455 C17.4751791,13.1583972 19.3312296,13.6035809 21.9555832,14.1811319 C23.8211354,14.5916906 26.2547048,15.143143 28.3299823,15.292241 C29.7530477,15.3944808 31.6330817,15.0241111 33.9700844,14.1811319 L38.5513305,11.9781724 L39.6972062,5.68421053 Z" id="Path-14" stroke-width="4" fill="#B66B43"></path>
                    <path d="M12.7143273,4.76120701 C12.0763338,3.69233216 10.7684573,3.15789474 8.79069767,3.15789474" id="Path-9" stroke-width="3" stroke-linecap="round" stroke-linejoin="round"></path>
                    <path d="M18.8270256,2.60280679 L16.3255814,1.26315789" id="Path-10" stroke-width="3" stroke-linecap="round" stroke-linejoin="round"></path>
                    <path d="M27.627907,9.47368421 C29.1810054,10.6936001 32.1242078,11.9096684 36.4575142,13.1218891" id="Path-11" stroke-width="3" stroke-linecap="round" stroke-linejoin="round"></path>
                    <path d="M18.2093023,10.1052632 C19.5209023,10.4556876 20.5112736,10.9021592 21.1804161,11.4446782 C22.5669674,12.5688489 22.7172597,13.3079898 22.9375725,13.8947368" id="Path-12" stroke-width="3" stroke-linecap="round" stroke-linejoin="round"></path>
                    <path d="M45.2847893,12.8440149 C41.4670228,10.0552788 39.5581395,8.5107826 39.5581395,8.21052632" id="Path-13" stroke-width="3" stroke-linecap="round" stroke-linejoin="round"></path>
                </g>
                <circle id="Oval" fill="#000000" cx="31" cy="93" r="4"></circle>
                <path d="M17.1504848,138.826196 C18.4744901,140.942065 20.3173418,142 22.6790398,142 C26.2215868,142 27.6390674,140.252374 28.4130494,138.826196 C28.9290374,137.875411 29.1048218,136.918467 28.9404026,135.955364 C28.7880993,135.100253 28.0514219,134.819175 26.7303705,135.112133 C26.1471462,135.241469 23.2717375,135.913784 18.1041446,137.129079 C17.6690177,137.233127 17.3511311,137.387063 17.1504848,137.590887 C16.9498384,137.794712 16.9498384,138.206482 17.1504848,138.826196 Z" id="Path-6" stroke="#000000" fill="#000000" stroke-linejoin="round"></path>
                <path d="M45,121 L52,122" id="Path-7" stroke="#000000" stroke-width="3" stroke-linecap="round" stroke-linejoin="round"></path>
                <path d="M15.3891714,157 C14.6217892,157 14,156.48836 14,155.856919 L14,150.143081 C14,149.51164 14.6217892,149 15.3891714,149 L37.6108286,149 C38.3782108,149 39,149.51164 39,150.143081 L39,155.856919 C39,156.48836 38.3782108,157 37.6108286,157 L15.3891714,157 Z M17,155 L36,155 L36,151 L17,151 L17,155 Z" id="Shape" fill="#000000" fill-rule="nonzero"></path>
                <polygon id="Path" fill="#FEC108" fill-rule="nonzero" points="16 151 37 151 37 155 16 155"></polygon>
            </g>
        </g>
    </g>
</svg>