<?xml version="1.0" encoding="UTF-8"?>
<svg width="156px" height="164px" viewBox="0 0 156 164" version="1.1" xmlns="http://www.w3.org/2000/svg" xmlns:xlink="http://www.w3.org/1999/xlink">
    <!-- Generator: Sketch 57.1 (83088) - https://sketch.com -->
    <title>lego-yannis-front</title>
    <desc>Created with Sketch.</desc>
    <g id="Page-1" stroke="none" stroke-width="1" fill="none" fill-rule="evenodd">
        <g id="Inspiration" transform="translate(-31.000000, -289.000000)">
            <g id="lego-yannis-front" transform="translate(31.000000, 291.000000)">
                <path d="M67.6004763,8 L88.3995237,8 C89.8360339,8 91,9.19386602 91,10.6660563 L91,24 L65,24 L65,10.6660563 C65,9.19386602 66.1639661,8 67.6004763,8 L67.6004763,8 Z" id="Path" fill="#FEC108" fill-rule="nonzero"></path>
                <polygon id="Path" fill="#FEC108" fill-rule="nonzero" points="57 83 99 83 99 112 57 112"></polygon>
                <path d="M124.551589,158 L153,158 L153,155.676626 C153.003552,152.333787 152.604587,149.001705 151.81021,145.755673 L149.404585,128.080579 C146.615386,117.813033 137.267544,110.775982 126.723992,111.005451 L29.2748662,111.005451 C18.7313144,110.775982 9.38347201,117.813033 6.59427284,128.080579 L4.18864776,145.755673 C3.3942708,149.001705 2.99530618,152.333787 3,155.676626 L3,158 L124.551589,158 Z" id="Path" fill="#FD3D37" fill-rule="nonzero"></path>
                <path d="M132,159 L24,159 L32.711804,109.143772 C33.6028775,106.482295 36.2031172,104.778573 39.0011117,105.023306 L117.015368,105.023306 C119.812185,104.778573 122.413602,106.482295 123.304676,109.143772 L132,159 Z" id="Path" fill="#D92424" fill-rule="nonzero"></path>
                <path d="M122,158 L34,158 L41.0981502,108.123528 C41.5602229,105.688147 43.7295958,103.943712 46.2224197,104.001389 L109.790613,104.001389 C112.283437,103.943712 114.45281,105.688147 114.914883,108.123528 L122,158 Z" id="Path" fill="#FD3D37" fill-rule="nonzero"></path>
                <path d="M57.2003174,19 L98.7996826,19 C108.85199,19 117,27.0584628 117,36.9991173 L117,72.999706 C117,82.9403602 108.85199,91 98.7996826,91 L57.2003174,91 C47.1480104,91 39,82.9403602 39,72.999706 L39,36.9991173 C39,27.0584628 47.1480104,19 57.2003174,19 Z" id="Path" fill="#FEC108" fill-rule="nonzero"></path>
                <path d="M94.5335697,19 L61.4664303,19 C53.4769591,19 47,27.0584628 47,36.9991173 L47,72.999706 C47,82.9403602 53.4769591,91 61.4664303,91 L94.5335697,91 C102.523041,91 109,82.9403602 109,72.999706 L109,36.9991173 C109,27.0584628 102.523041,19 94.5335697,19 L94.5335697,19 Z" id="Path" fill="#FFDC00" fill-rule="nonzero"></path>
                <path d="M90,70 C87.9403897,73.5039311 81.5118392,74 78.0005834,74 C74.4811591,74 68.05961,73.5039311 66,70 C69.9278457,70.8409842 73.9548791,71.2802436 78.0005834,71.3076337 C82.0451209,71.2802436 86.0733211,70.8419986 90,70 L90,70 Z" id="Path" fill="#000000" fill-rule="nonzero"></path>
                <path d="M69.6753265,37.4832914 C67.2337814,36.7167571 64.6699244,36.2732906 62.0707845,36.1679424 C58.5778228,35.9431992 55.0813331,36.5782992 52,38 C52.3516484,34.1643174 62.7752573,33.4058091 67.8700416,34.3920702 C68.6780096,34.4783557 69.381306,34.9037623 69.7447151,35.5248156 C70.1081245,36.1458692 70.0822505,36.8813009 69.6753265,37.4832914 Z" id="Path" fill="#B66B43" fill-rule="nonzero"></path>
                <path d="M67,49.5 C67,46.4628445 64.7615012,44 62,44 C59.2384985,44 57,46.4628445 57,49.5 C57,52.5371558 59.2384985,55 62,55 C64.7615012,55 67,52.5371558 67,49.5 Z" id="Path" fill="#000000" fill-rule="nonzero"></path>
                <path d="M63.3884847,47.1640807 C62.0989519,46.6732114 60.6549497,47.3208384 60.1640806,48.6115154 C59.6732115,49.9021924 60.3208383,51.3450502 61.6115153,51.8359193 C62.9021922,52.3267886 64.3461944,51.6791616 64.8359194,50.3884846 C65.3267885,49.0978076 64.6791617,47.6549498 63.3884847,47.1640807 Z" id="Path" fill="#FFFFFF" fill-rule="nonzero"></path>
                <path d="M87.3246735,37.4832914 C89.7662186,36.7167571 92.3300756,36.2732906 94.9292155,36.1679424 C98.4221772,35.9431992 101.918667,36.5782992 105,38 C104.648352,34.1643174 94.2247427,33.4058091 89.1299584,34.3920702 C88.3219904,34.4783557 87.618694,34.9037623 87.2552849,35.5248156 C86.8918755,36.1458692 86.9177495,36.8813009 87.3246735,37.4832914 L87.3246735,37.4832914 Z" id="Path" fill="#B66B43" fill-rule="nonzero"></path>
                <path d="M99,49.5 C99,46.4628445 96.7615015,44 94,44 C91.2384988,44 89,46.4628445 89,49.5 C89,52.5371558 91.2384988,55 94,55 C96.7615015,55 99,52.5371558 99,49.5 Z" id="Path" fill="#000000" fill-rule="nonzero"></path>
                <path d="M95.8359194,48.6118742 C95.3450503,47.3213338 93.9010481,46.6737753 92.6115153,47.1634484 C91.3208383,47.6542656 90.6732115,49.0981149 91.1640806,50.3886552 C91.6538056,51.6791955 93.0978078,52.326754 94.3884847,51.8359366 C95.6791617,51.3451195 96.3267885,49.9012705 95.8359194,48.6118742 Z" id="Path" fill="#FFFFFF" fill-rule="nonzero"></path>
                <path d="M131.430663,162 L23.5693373,162 C22.8110752,162 22.0904323,161.65977 21.6025581,161.070038 C21.1146839,160.4815 20.9077783,159.70315 21.03827,158.9439 L29.7388876,108.359468 C30.8333715,104.397282 34.5082981,101.754232 38.5511872,102.019254 L116.466447,102.019254 C120.488175,101.748263 124.151346,104.362662 125.263463,108.296198 L133.96173,158.9439 C134.092222,159.70315 133.885316,160.4815 133.397442,161.070038 C132.909568,161.65977 132.188925,162 131.430663,162 Z M26.6247225,156.784335 L128.377629,156.784335 L120.215436,109.256004 C119.505373,107.850914 118.008834,107.043912 116.466447,107.234919 L38.5511872,107.234919 C36.9864632,107.040331 35.4734659,107.879565 34.7869153,109.320469 L26.6247225,156.784335 Z" id="Shape" fill="#000000" fill-rule="nonzero"></path>
                <path d="M98.3883577,107 L56.6116423,107 C55.1689638,107 54,105.84881 54,104.428067 L54,91.571933 C54,90.1511903 55.1689638,89 56.6116423,89 L98.3883577,89 C99.8310362,89 101,90.1511903 101,91.571933 L101,104.428067 C101,105.84881 99.8310362,107 98.3883577,107 L98.3883577,107 Z M59.2220894,101.857311 L95.7779106,101.857311 L95.7779106,94.1426889 L59.2220894,94.1426889 L59.2220894,101.857311 Z" id="Shape" fill="#000000" fill-rule="nonzero"></path>
                <path d="M98.2494064,94 L56.7505936,94 C45.2954395,93.9869082 36.0142477,84.6820374 36,73.2003177 L36,36.7996829 C36.0142477,25.3179629 45.2954395,16.0130921 56.7505936,16 L98.2494064,16 C109.70456,16.0130921 118.985752,25.3179629 119,36.7996829 L119,73.2003177 C118.985752,84.6820374 109.70456,93.9869082 98.2494064,94 Z M56.7505936,21.1999209 C48.1592281,21.2094424 41.19685,28.1886904 41.1885388,36.7996829 L41.1885388,73.2003177 C41.19685,81.8113099 48.1592281,88.7905579 56.7505936,88.8000794 L98.2494064,88.8000794 C106.840772,88.7905579 113.80315,81.8113099 113.811461,73.2003177 L113.811461,36.7996829 C113.80315,28.1886904 106.840772,21.2094424 98.2494064,21.1999209 L56.7505936,21.1999209 Z" id="Shape" fill="#000000" fill-rule="nonzero"></path>
                <path d="M90.417258,19 L64.582742,19 C63.1565577,19 62,17.806134 62,16.3339437 L62,8.33333323 C62.0035478,5.38895238 64.3142976,3.00366218 67.1666669,3 L87.8333331,3 C90.6857024,3.00366218 92.9964522,5.38895238 93,8.33333323 L93,16.3339437 C93,17.806134 91.8434423,19 90.417258,19 L90.417258,19 Z M67.1666669,13.6666665 L87.8333331,13.6666665 L87.8333331,8.33333323 L67.1666669,8.33333323 L67.1666669,13.6666665 Z" id="Shape" fill="#000000" fill-rule="nonzero"></path>
                <path d="M31.1449848,162 L2.59601867,162 C1.16197632,162 0,160.836159 0,159.399803 L0,157.086401 C-0.00236605434,153.593688 0.412282534,150.114065 1.23682699,146.720123 L3.6320459,129.254177 C3.64273877,129.164925 3.66056041,129.076863 3.68432251,128.989992 C6.73062275,117.578875 17.1752505,109.736633 28.9648128,110.006768 L31.4051795,110.006768 C32.8380338,110.006768 34,111.170609 34,112.606965 C34,114.042131 32.8380338,115.205972 31.4051795,115.205972 L28.9648128,115.205972 C19.6168056,114.946547 11.287004,121.084678 8.753965,130.102662 L6.35874608,147.562658 C6.34805322,147.6531 6.33023157,147.743542 6.30646948,147.832793 C5.5852899,150.767386 5.20984884,153.778141 5.19083917,156.800796 L31.1449848,156.800796 C32.5790269,156.800796 33.7409933,157.964637 33.7409933,159.399803 C33.7409933,160.836159 32.5790269,162 31.1449848,162 Z" id="Path" fill="#000000" fill-rule="nonzero"></path>
                <path d="M153.402063,162 L124.832142,162 C123.397048,162 122.234228,160.83616 122.234228,159.399806 C122.234228,157.964641 123.397048,156.800802 124.832142,156.800802 L150.805338,156.800802 C150.785126,153.77815 150.409409,150.767399 149.686511,147.831619 C149.662732,147.743558 149.646086,147.653116 149.634196,147.561485 L147.239597,130.102698 C144.704699,121.084725 136.368783,114.9466 127.013915,115.206025 L124.597914,115.206025 C123.164008,115.206025 122,114.042185 122,112.607021 C122,111.170666 123.164008,110.006826 124.597914,110.006826 L127.013915,110.006826 C138.81213,109.735502 149.265613,117.577735 152.315338,128.988839 C152.339118,129.076901 152.355764,129.164962 152.367653,129.254214 L154.763441,146.72014 C155.588591,150.112888 156.003544,153.593697 156,157.086407 L156,159.399806 C156,160.090018 155.726512,160.750479 155.239032,161.238387 C154.751552,161.726295 154.09167,162 153.402063,162 L153.402063,162 Z" id="Path" fill="#000000" fill-rule="nonzero"></path>
                <g id="Group" transform="translate(43.000000, 39.000000)" stroke="#000000" stroke-width="3">
                    <path d="M0,7.21103959 C4.0185833,4.29005995 7.21586361,2.53485994 9.59184093,1.94543956 C11.3156476,1.51780636 14.5969331,0.755729455 16.6160423,0.755729455 C19.2350743,0.755729455 23.8448888,1.07656102 25.2701862,1.67253399 C27.524445,2.61512833 29.0459103,3.75100786 29.9977009,6.7490217 C30.1899147,7.35446931 30.3616152,7.89775696 30.530542,8.53773221 C30.6994687,9.17770747 30.8991963,9.75736256 31,10.5152432 C31.1008037,11.2731239 31.1008037,7.6514512 31,8.53773221 C30.9872124,8.65016277 31.039722,15.6489413 30.0910826,17.3678343 C29.1424431,19.0867273 28.7298194,19.6343849 28.0351376,20.39008 C27.3404557,21.1457751 26.0723837,22.2238644 24.6035512,23.0069678 C23.1408461,23.7868045 20.4783431,24.2290402 16.6160423,24.333675 C15.7377314,24.3710438 15.1210945,24.3710438 14.7661316,24.333675 C14.0600681,24.259344 11.1757804,24.1662312 9.59184093,23.4370219 C6.10828486,21.8332727 4.94203379,19.4612109 4.6606927,18.9733038 C3.38872656,16.767436 2.75274349,14.379496 2.75274349,11.8094837 L0,10.5152432 L0,7.21103959 Z" id="Path-3" stroke-linejoin="round"></path>
                    <path d="M39.3820906,7.35446931 C40.2272475,6.46475288 40.82132,5.90220683 41.1643083,5.66683116 C44.4457796,3.41492155 46.5378903,2.69924374 48.5918409,2.1897101 C50.3156476,1.7620769 53.5969331,1 55.6160423,1 C58.2350743,1 62.8448888,1.32083156 64.2701862,1.91680453 C66.524445,2.85939888 68.0459103,3.9952784 68.9977009,6.99329225 C69.1899147,7.59873986 69.3616152,8.1420275 69.530542,8.78200276 C69.6994687,9.42197801 69.8991963,10.0016331 70,10.7595138 C70.1008037,11.5173944 70.1008037,7.89572175 70,8.78200276 C69.9872124,8.89443331 70.039722,15.8932118 69.0910826,17.6121048 C68.1424431,19.3309979 67.7298194,19.8786554 67.0351376,20.6343505 C66.3404557,21.3900456 65.0723837,22.4681349 63.6035512,23.2512384 C62.1408461,24.031075 59.4783431,24.4733107 55.6160423,24.5779456 C54.7377314,24.6153144 54.1210945,24.6153144 53.7661316,24.5779456 C53.0600681,24.5036145 50.1757804,24.4105018 48.5918409,23.6812924 C45.1082849,22.0775432 43.9420338,19.7054814 43.6606927,19.2175744 C42.3887266,17.0117066 41.5565984,14.6058485 41.1643083,12 L39,10.7595138 L39.3820906,7.35446931 Z" id="Path-3" stroke-linejoin="round" transform="translate(54.537801, 12.802986) scale(-1, 1) translate(-54.537801, -12.802986) "></path>
                    <path d="M2.93015445,5.93546581 L2.75274349,12.4513609" id="Path-4"></path>
                    <path d="M68.5,6.5 L67.9112945,12" id="Path-4"></path>
                    <path d="M31,7.13929242 C32.7622679,6.75952828 34.0916403,6.56964621 34.9881171,6.56964621 C36.3328322,6.56964621 38.9762341,7.13929242 38.9762341,7.13929242" id="Path-5" stroke-linecap="round" stroke-linejoin="round"></path>
                </g>
                <g id="hair" transform="translate(35.000000, 0.000000)" stroke="#000000">
                    <path d="M61.9933087,8 L61,18.5652966 C63.594272,21.7054675 65.8206625,24.1433627 67.6791716,25.8789821 C69.5376807,27.6146014 72.7464182,30.2524489 77.3053844,33.7925245 C76.8520408,45.8924672 77.8704277,53.189897 80.3605452,55.684814 C84.0957214,59.4271895 86.8683606,40.3902281 84.0957214,25.3426802 C83.2141811,20.5584227 79.1111864,16.3071917 75.7190661,13.4565996 C74.0246405,12.0326772 71.3288943,10.1761032 67.6791716,9 C66.5506055,8.63632574 64.6553178,8.30299241 61.9933087,8 Z" id="Path-15" stroke-width="4" fill="#B66B43"></path>
                    <path d="M63.2214765,9 C59.8665894,3 50.448197,-3.55271368e-15 34.9662992,-3.55271368e-15 C21.4552366,-3.55271368e-15 10.9906244,4.16769054 6.68759156,8.51301813 C3.5945613,11.6364499 4.62387651,14.8515362 5.60492874,16.6771344 C6.73824309,18.7860706 1.07825709,21.4292207 0.203967632,30.7746322 C-0.731471406,40.7736807 1.82480188,55.9705232 2.34169656,56.2138671 C3.34169656,56.6846476 5.52707002,54.8659226 7.99656916,31.9329613 C8.34248458,28.7206237 10.4170025,27.1971239 12.0553466,25.6105975 C15.0245216,22.7353319 18.9872595,21.3043421 25.8252942,20.9407638 C27.8308409,20.8341289 30.7867731,21.5390031 34.9662992,22.4534588 C37.9373637,23.1035102 41.8130484,23.9766432 45.11812,24.2127148 C47.3844833,24.3745946 50.3786116,23.7881759 54.1005048,22.4534588 L61.3965634,18.9654396 L63.2214765,9 Z" id="Path-14" stroke-width="4" fill="#B66B43"></path>
                    <path d="M20.2487435,7.53857776 C19.2326798,5.84619259 17.1497653,5 14,5" id="Path-9" stroke-width="3" stroke-linecap="round" stroke-linejoin="round"></path>
                    <path d="M29.9837816,4.12111075 L26,2" id="Path-10" stroke-width="3" stroke-linecap="round" stroke-linejoin="round"></path>
                    <path d="M44,15 C46.473453,16.9315334 51.1607753,18.8569749 58.061967,20.7763244" id="Path-11" stroke-width="3" stroke-linecap="round" stroke-linejoin="round"></path>
                    <path d="M29,16 C31.0888444,16.5548386 32.6661023,17.2617521 33.7317738,18.1207405 C35.9399852,19.9006774 36.1793396,21.0709838 36.530208,22" id="Path-12" stroke-width="3" stroke-linecap="round" stroke-linejoin="round"></path>
                    <path d="M72.12022,20.336357 C66.0400733,15.9208581 63,13.4754058 63,13" id="Path-13" stroke-width="3" stroke-linecap="round" stroke-linejoin="round"></path>
                </g>
            </g>
        </g>
    </g>
</svg>