<?xml version="1.0" encoding="UTF-8"?>
<svg width="382px" height="385px" viewBox="0 0 382 385" version="1.1" xmlns="http://www.w3.org/2000/svg" xmlns:xlink="http://www.w3.org/1999/xlink">
    <!-- Generator: Sketch 57.1 (83088) - https://sketch.com -->
    <title>github-color</title>
    <desc>Created with Sketch.</desc>
    <g id="Welcome" stroke="none" stroke-width="1" fill="none" fill-rule="evenodd">
        <g id="Skills-Icons" transform="translate(-1105.000000, -899.000000)">
            <g id="github-color" transform="translate(1105.000000, 899.000000)">
                <circle id="Oval" fill="#FFFFFF" cx="191" cy="194" r="191"></circle>
                <g id="github-logo" fill="#000000" fill-rule="nonzero">
                    <path d="M356.378633,97.5120466 C339.298883,67.5141095 316.131293,43.7647009 286.869765,26.2584634 C257.603882,8.75133295 225.654262,0 190.998258,0 C156.346609,0 124.386536,8.75401166 95.1267507,26.2584634 C65.8626096,43.763808 42.6958905,67.5141095 25.6161406,97.5120466 C8.53900389,127.509091 0,160.266095 0,195.782167 C0,238.445027 12.1425803,276.808563 36.4338382,310.882598 C60.7224829,344.959312 92.0998162,368.539069 130.563225,381.624549 C135.040475,382.476377 138.354859,381.87724 140.509862,379.842316 C142.665736,377.804714 143.742367,375.2528 143.742367,372.197289 C143.742367,371.687442 143.699685,367.100604 143.616934,358.431418 C143.53157,349.762232 143.491501,342.199352 143.491501,335.746349 L137.771249,336.760685 C134.124119,337.445541 129.523179,337.735734 123.968427,337.653587 C118.416289,337.574119 112.652483,336.97766 106.684849,335.868676 C100.714602,334.769514 95.1615931,332.220278 90.0214664,328.226327 C84.8839529,324.232377 81.2368235,319.004435 79.0809493,312.550539 L76.5940722,306.684173 C74.9364445,302.778619 72.3267479,298.440008 68.7614982,293.684412 C65.1962485,288.924351 61.59093,285.697403 57.9438007,283.99821 L56.2025512,282.720468 C55.0422989,281.871318 53.9656684,280.847159 52.9700465,279.658707 C51.9752956,278.470254 51.2305391,277.280908 50.7331637,276.089777 C50.2349172,274.897753 50.6477998,273.920025 51.9761667,273.153022 C53.3045336,272.386019 55.7051757,272.013679 59.1885458,272.013679 L64.1605578,272.775325 C67.4766843,273.456609 71.5785072,275.491533 76.4712527,278.892597 C81.3613851,282.290982 85.3813283,286.709061 88.5319533,292.145049 C92.3471973,299.115042 96.9437824,304.426023 102.334774,308.080672 C107.721411,311.73532 113.152472,313.559518 118.622731,313.559518 C124.092989,313.559518 128.81762,313.134497 132.798366,312.288919 C136.774756,311.438876 140.505507,310.161133 143.988877,308.462834 C145.481003,297.071189 149.543628,288.319856 156.173268,282.202584 C146.724006,281.184676 138.228555,279.651563 130.68256,277.613068 C123.14092,275.571894 115.347544,272.259227 107.307658,267.666139 C99.2634159,263.079301 92.5902231,257.383479 87.2863371,250.588495 C81.98158,243.789938 77.6280208,234.86449 74.2317568,223.820184 C70.8337506,212.771414 69.134312,200.02613 69.134312,185.580761 C69.134312,165.012763 75.6846853,147.510097 88.7828187,133.062942 C82.6470701,117.599664 83.2263252,100.264864 90.5223261,81.0603264 C95.3305788,79.5289994 102.461078,80.6781643 111.91034,84.500678 C121.361344,88.3249775 128.281047,91.6010351 132.676417,94.3172431 C137.071787,97.0325582 140.593484,99.3335668 143.246734,101.199732 C158.668856,96.7825456 174.583998,94.573506 190.996516,94.573506 C207.409033,94.573506 223.32766,96.7825456 238.750653,101.199732 L248.200786,95.0842459 C254.663182,91.0036836 262.294542,87.2642098 271.076571,83.8649317 C279.863827,80.4674395 286.583186,79.5316781 291.22768,81.0630051 C298.685698,100.268435 299.350317,117.602343 293.212826,133.06562 C306.310088,147.512775 312.863075,165.019906 312.863075,185.58344 C312.863075,200.028809 311.157539,212.814274 307.764759,223.947869 C304.367624,235.083251 299.976609,243.99977 294.589972,250.71618 C289.197238,257.431696 282.481363,263.082873 274.441477,267.668818 C266.399849,272.258334 258.603859,275.571001 251.062219,277.612175 C243.517095,279.653349 235.021644,281.187355 225.572382,282.207049 C234.190653,289.852076 238.500659,301.919647 238.500659,318.404405 L238.500659,372.190146 C238.500659,375.245656 239.537221,377.796677 241.612086,379.835173 C243.684339,381.870097 246.956912,382.469234 251.434162,381.616512 C289.902797,368.532819 321.28013,344.952169 345.567904,310.875455 C369.853064,276.80142 382,238.437884 382,195.775024 C381.991289,160.263417 373.44793,127.509091 356.378633,97.5120466 Z" id="Path"></path>
                </g>
            </g>
        </g>
    </g>
</svg>