<?xml version="1.0" encoding="UTF-8"?>
<svg width="344px" height="344px" viewBox="0 0 344 344" version="1.1" xmlns="http://www.w3.org/2000/svg" xmlns:xlink="http://www.w3.org/1999/xlink">
    <!-- Generator: Sketch 57.1 (83088) - https://sketch.com -->
    <title>r</title>
    <desc>Created with Sketch.</desc>
    <g id="Welcome" stroke="none" stroke-width="1" fill="none" fill-rule="evenodd">
        <g id="Skills-Icons" transform="translate(-684.000000, -1451.000000)" fill-rule="nonzero">
            <g id="r" transform="translate(684.000000, 1451.000000)">
                <path d="M209.526652,272 L228,299.961722 C210.134328,305.186603 190.93177,308 171,308 L171,272.861244 C175.982942,273.320574 181.026652,273.550239 186.191898,273.550239 C194.152452,273.550239 201.930704,273.033493 209.465885,272 L209.526652,272 Z" id="Path" fill="#8360F4"></path>
                <path d="M344,154.500883 C344,207.387723 314.404138,254.094528 269.268966,281.904687 L260.431724,267.761914 C258.415172,264.55305 256.22069,261.463032 253.848276,258.491861 C293.586207,239.476368 320.275862,204.000588 320.275862,163.414395 C320.275862,102.683663 260.550345,53.4810747 186.827586,53.4810747 C113.104828,53.4810747 53.3793103,102.683663 53.3793103,163.414395 C53.3793103,205.605021 82.2041379,242.269268 124.551724,260.690528 L124.551724,303 C52.6082759,284.578741 0,225.036478 0,154.500883 C0,69.1688566 76.9848276,0 172,0 C267.015172,0 344,69.1688566 344,154.500883 Z" id="Path" fill="#8360F4"></path>
                <path d="M268.825806,280.891429 L308,344 L254.580645,344 L202.229677,259.61619 C197.837419,252.624048 190.24,248.380952 182.049032,248.380952 L171.483871,248.380952 L171.483871,338.02381 C171.483871,341.310714 168.812903,344 165.548387,344 L129.935484,344 C126.670968,344 124,341.310714 124,338.02381 L124,98.9761905 C124,95.6892857 126.670968,93 129.935484,93 L230.83871,93 C266.926452,93 296.129032,122.402857 296.129032,158.738095 L296.129032,170.690476 C296.129032,188.858095 288.828387,205.292619 277.016774,217.185238 C265.205161,229.077857 248.882581,236.428571 230.83871,236.428571 C239.445161,242.225476 247.042581,249.277381 253.393548,257.345238 C255.767742,260.333333 257.963871,263.440952 259.981935,266.668095 L268.825806,280.891429 Z M248.645161,170.690476 C248.645161,162.443333 245.32129,154.973095 239.979355,149.534762 C234.578065,144.15619 227.15871,140.809524 218.967742,140.809524 L171.483871,140.809524 L171.483871,200.571429 L218.967742,200.571429 C235.349677,200.571429 248.645161,187.184762 248.645161,170.690476 L248.645161,170.690476 Z" id="Shape" fill="#6599ED"></path>
            </g>
        </g>
    </g>
</svg>