<?xml version="1.0" encoding="UTF-8"?>
<svg width="256px" height="327px" viewBox="0 0 256 327" version="1.1" xmlns="http://www.w3.org/2000/svg" xmlns:xlink="http://www.w3.org/1999/xlink">
    <!-- Generator: Sketch 57.1 (83088) - https://sketch.com -->
    <title>raspberry-pi</title>
    <desc>Created with Sketch.</desc>
    <g id="Welcome" stroke="none" stroke-width="1" fill="none" fill-rule="evenodd">
        <g id="Skills-Icons" transform="translate(-53.000000, -1855.000000)" fill-rule="nonzero">
            <g id="raspberry-pi" transform="translate(42.000000, 1855.000000)">
                <path d="M80.2981309,0.005 C78.6451309,0.056 76.8651309,0.667 74.8451309,2.26 C69.8991309,0.353 65.1021309,-0.31 60.8131309,3.573 C54.1901309,2.714 52.0381309,4.487 50.4071309,6.557 C48.9531309,6.527 39.5281309,5.062 35.2051309,11.51 C24.3431309,10.225 20.9101309,17.899 24.8001309,25.056 C22.5811309,28.49 20.2821309,31.883 25.4701309,38.431 C23.6351309,42.077 24.7731309,46.033 29.0961309,50.82 C27.9551309,55.947 30.1981309,59.563 34.2211309,62.382 C33.4681309,69.397 40.6541309,73.476 42.7991309,74.929 C43.6231309,79.016 45.3401309,82.874 53.5471309,85.006 C54.9011309,91.098 59.8331309,92.15 64.6101309,93.428 C48.8231309,102.605 35.2851309,114.678 35.3771309,144.303 L33.0641309,148.428 C14.9621309,159.436 -1.3238691,194.818 24.1441309,223.576 C25.8071309,232.578 28.5971309,239.044 31.0811309,246.2 C34.7961309,275.036 59.0431309,288.539 65.4391309,290.136 C74.8101309,297.274 84.7911309,304.047 98.2981309,308.792 C111.030131,321.923 124.824131,326.928 138.693131,326.92001 C138.897131,326.92001 166.970131,321.924 179.703131,308.792 C193.209131,304.047 203.190131,297.274 212.562131,290.136 C218.957131,288.539 243.204131,275.036 246.919131,246.2 C249.403131,239.044 252.193131,232.578 253.857131,223.576 C279.323131,194.815 263.038131,159.432 244.936131,148.424 L242.620131,144.299 C242.712131,114.677 229.174131,102.603 213.387131,93.424 C218.163131,92.146 223.096131,91.094 224.449131,85.002 C232.656131,82.869 234.374131,79.012 235.197131,74.925 C237.343131,73.472 244.528131,69.393 243.776131,62.378 C247.798131,59.559 250.041131,55.942 248.900131,50.816 C253.224131,46.029 254.361131,42.073 252.526131,38.426 C257.715131,31.882 255.413131,28.489 253.197131,25.055 C257.085131,17.898 253.654131,10.223 242.788131,11.509 C238.467131,5.061 229.044131,6.525 227.586131,6.555 C225.956131,4.486 223.804131,2.713 217.181131,3.572 C212.892131,-0.311 208.096131,0.351 203.149131,2.259 C197.275131,-2.376 193.388131,1.339 188.948131,2.744 C181.837131,0.42 180.210131,3.603 176.716131,4.9 C168.960131,3.261 166.603131,6.829 162.885131,10.595 L158.560131,10.509 C146.862131,17.403 141.050131,31.441 138.990131,38.658 C136.929131,31.44 131.131131,17.402 119.435131,10.509 L115.110131,10.595 C111.387131,6.829 109.031131,3.261 101.275131,4.9 C97.7801309,3.603 96.1591309,0.42 89.0421309,2.744 C86.1281309,1.822 83.4481309,-0.094 80.2931309,0.004 L0,141" id="Path" fill="#000000"></path>
                <path d="M57.008,30.334 C88.044,46.335 106.087,59.279 115.972,70.303 C110.91,90.592 84.502,91.518 74.846,90.949 C76.823,90.029 78.473,88.926 79.058,87.233 C76.635,85.511 68.044,87.051 62.046,83.682 C64.35,83.204 65.428,82.739 66.505,81.039 C60.839,79.232 54.735,77.674 51.145,74.68 C53.082,74.704 54.891,75.114 57.421,73.359 C52.346,70.624 46.93,68.456 42.722,64.275 C45.346,64.211 48.175,64.249 48.998,63.284 C44.353,60.406 40.433,57.206 37.189,53.705 C40.861,54.148 42.412,53.767 43.3,53.127 C39.788,49.53 35.344,46.493 33.225,42.061 C35.951,43.001 38.446,43.361 40.244,41.979 C39.051,39.287 33.939,37.699 30.995,31.408 C33.866,31.687 36.91,32.034 37.519,31.408 C36.187,25.98 33.901,22.928 31.659,19.766 C37.802,19.675 47.11,19.79 46.689,19.271 L42.89,15.39 C48.891,13.774 55.031,15.649 59.489,17.041 C61.49,15.462 59.453,13.465 57.011,11.426 C62.111,12.107 66.719,13.279 70.885,14.894 C73.11,12.885 69.44,10.875 67.664,8.866 C75.543,10.36 78.881,12.461 82.198,14.564 C84.605,12.257 82.336,10.296 80.712,8.288 C86.653,10.488 89.713,13.329 92.934,16.133 C94.026,14.659 95.709,13.578 93.677,10.022 C97.895,12.453 101.072,15.318 103.422,18.528 C106.032,16.866 104.977,14.594 104.991,12.499 C109.375,16.065 112.157,19.86 115.562,23.565 C116.248,23.065 116.848,21.372 117.379,18.693 C127.836,28.838 142.613,54.393 121.177,64.525 C102.934,49.479 81.146,38.542 57.001,30.338 L57.008,30.334" id="Path" fill="#75A928"></path>
                <path d="M221.686,30.334 C190.654,46.337 172.611,59.277 162.727,70.303 C167.789,90.592 194.196,91.518 203.852,90.949 C201.875,90.029 200.225,88.926 199.641,87.233 C202.064,85.511 210.655,87.051 216.652,83.682 C214.348,83.204 213.271,82.739 212.193,81.039 C217.86,79.232 223.964,77.674 227.553,74.68 C225.616,74.704 223.807,75.114 221.277,73.359 C226.353,70.624 231.769,68.456 235.977,64.275 C233.352,64.211 230.523,64.249 229.701,63.284 C234.346,60.406 238.266,57.206 241.51,53.705 C237.837,54.148 236.287,53.767 235.399,53.127 C238.91,49.53 243.355,46.493 245.474,42.061 C242.747,43.001 240.252,43.361 238.454,41.979 C239.647,39.287 244.76,37.699 247.703,31.408 C244.833,31.687 241.788,32.034 241.179,31.408 C242.514,25.978 244.8,22.926 247.042,19.764 C240.899,19.673 231.591,19.788 232.012,19.269 L235.811,15.387 C229.81,13.772 223.67,15.647 219.212,17.039 C217.211,15.46 219.247,13.463 221.689,11.424 C216.59,12.104 211.981,13.277 207.816,14.892 C205.59,12.883 209.261,10.873 211.037,8.864 C203.158,10.358 199.82,12.459 196.502,14.562 C194.095,12.255 196.365,10.294 197.989,8.286 C192.048,10.486 188.988,13.327 185.767,16.131 C184.674,14.657 182.992,13.576 185.023,10.02 C180.806,12.451 177.629,15.316 175.279,18.526 C172.669,16.864 173.724,14.591 173.71,12.497 C169.326,16.063 166.544,19.857 163.139,23.563 C162.453,23.063 161.853,21.37 161.322,18.69 C150.865,28.836 136.088,54.391 157.524,64.523 C175.757,49.473 197.544,38.538 221.69,30.334 L221.686,30.334" id="Path" fill="#75A928"></path>
                <path d="M176.933525,236.933 C177.041,255.866 160.484,271.295 139.953,271.394488 C119.421,271.494 102.689,256.227 102.581,237.294 C102.58025,237.174 102.58025,237.054 102.581,236.933 C102.473,218.001 119.029,202.572 139.561,202.471512 C160.093,202.372 176.824,217.639 176.933525,236.572 L176.933525,236.933" id="Path" fill="#BC1142"></path>
                <path d="M118.246,139.004 C133.65,149.097 136.427,171.973 124.448,190.099 C112.469,208.226 90.271,214.74 74.867,204.648 C59.463,194.555 56.687,171.679 68.665,153.553 C80.644,135.426 102.842,128.912 118.246,139.004" id="Path" fill="#BC1142"></path>
                <path d="M159.822,137.177 C144.419,147.269 141.642,170.146 153.62,188.272 C165.599,206.399 187.797,212.913 203.201,202.82 C218.605,192.728 221.382,169.852 209.403,151.725 C197.425,133.599 175.227,127.085 159.822,137.177" id="Path" fill="#BC1142"></path>
                <path d="M41.258,155.504 C57.889,151.046 46.873,224.307 33.341,218.296 C18.456,206.324 13.662,171.263 41.258,155.504" id="Path" fill="#BC1142"></path>
                <path d="M233.453,154.591 C216.82,150.134 227.838,223.398 241.37,217.387 C256.255,205.414 261.049,170.349 233.453,154.591" id="Path" fill="#BC1142"></path>
                <path d="M176.946,100.034 C205.647,95.188 229.529,112.24 228.565,143.362 C227.621,155.294 166.372,101.811 176.946,100.034" id="Path" fill="#BC1142"></path>
                <path d="M97.646,99.121 C68.943,94.274 45.063,111.33 46.027,142.45 C46.971,154.381 108.221,100.898 97.646,99.121" id="Path" fill="#BC1142"></path>
                <path d="M138.874,91.863 C121.744,91.417 105.304,104.576 105.263878,112.209 C105.217,121.483 118.808,130.979 138.991,131.22 C159.601,131.367 172.753,123.619 172.819229,114.048 C172.895,103.204 154.074,91.695 138.874,91.862 L138.874,91.863" id="Path" fill="#BC1142"></path>
                <path d="M139.92,282.043 C154.855,281.391 174.895,286.853 174.935,294.1 C175.183,301.136 156.76,317.034 138.93,316.727 C120.464,317.524 102.357,301.601 102.594,296.082 C102.317,287.99 125.078,281.672 139.92,282.043" id="Path" fill="#BC1142"></path>
                <path d="M84.756,239.098 C95.389,251.908 100.237,274.414 91.363,281.049 C82.968,286.114 62.581,284.028 48.091,263.211 C38.318,245.743 39.577,227.968 46.439,222.746 C56.7,216.496 72.554,224.939 84.757,239.098 L84.756,239.098" id="Path" fill="#BC1142"></path>
                <path d="M192.956,235.037 C181.451,248.512 175.045,273.09 183.437,281.006 C191.462,287.156 213.004,286.296 228.916,264.217 C240.47,249.388 236.599,224.623 229.999,218.047 C220.195,210.464 206.12,220.169 192.956,235.033 L192.956,235.037" id="Path" fill="#BC1142"></path>
            </g>
        </g>
    </g>
</svg>